<?xml version="1.0" encoding="UTF-8" standalone="no"?>
<svg
   viewBox="0 0 445.34 389.74615"
   version="1.1"
   id="svg435"
   sodipodi:docname="Oops! 404 Error with a broken robot-amico-2.svg"
   width="445.34"
   height="389.74615"
   inkscape:version="1.1 (c4e8f9e, 2021-05-24)"
   xmlns:inkscape="http://www.inkscape.org/namespaces/inkscape"
   xmlns:sodipodi="http://sodipodi.sourceforge.net/DTD/sodipodi-0.dtd"
   xmlns="http://www.w3.org/2000/svg"
   xmlns:svg="http://www.w3.org/2000/svg">
  <defs
     id="defs439" />
  <sodipodi:namedview
     id="namedview437"
     pagecolor="#ffffff"
     bordercolor="#666666"
     borderopacity="1.0"
     inkscape:pageshadow="2"
     inkscape:pageopacity="0.0"
     inkscape:pagecheckerboard="0"
     showgrid="false"
     fit-margin-top="0"
     fit-margin-left="0"
     fit-margin-right="0"
     fit-margin-bottom="0"
     inkscape:zoom="1.25"
     inkscape:cx="222.8"
     inkscape:cy="164.4"
     inkscape:window-width="1296"
     inkscape:window-height="847"
     inkscape:window-x="-55"
     inkscape:window-y="25"
     inkscape:window-maximized="0"
     inkscape:current-layer="svg435" />
  <g
     id="freepik--Floor--inject-197"
     transform="translate(-27.330002,-85.423868)">
    <ellipse
       id="freepik--floor--inject-197"
       cx="250"
       cy="346.54001"
       rx="222.67"
       ry="128.63"
       style="fill:#f5f5f5" />
  </g>
  <g
     id="freepik--Shadows--inject-197"
     transform="translate(-27.330002,-85.423868)">
    <path
       id="freepik--Shadow--inject-197"
       d="m 438.45,332.2 c -5.78,-2.08 -19.62,-4.12 -42.75,-5.8 -30.4,-2.21 -38.21,-3.8 -40.06,2.62 L 321,322.34 c 0.25,-8.13 -5,-16.31 -15.74,-22.51 -21,-12.13 -55.07,-12.13 -76.08,0 -21.01,12.13 -21,31.8 0,43.93 12.23,7.06 28.88,10 44.81,8.84 l 24.45,28.22 c 0,0 -3.65,2.26 1,8.61 5,6.82 30.46,41.32 34.39,44.71 6.19,5.34 18.13,9.16 34.8,-0.32 19.06,-10.84 -0.56,-21 -11.71,-28.65 -13.48,-9.26 -42.43,-28.95 -46.09,-31.62 -2.79,-2 -5.64,0.79 -5.64,0.79 l -20.77,-23.11 a 67.91,67.91 0 0 0 20.86,-7.47 c 8.05,-4.65 13,-10.4 14.88,-16.41 l 34.07,6.79 c 0,0 -1.56,3 5.65,5 6.17,1.67 52.54,13.47 60.81,12.46 8.06,-1 14.56,-5.7 18.63,-10.4 4.98,-5.8 1.97,-7.97 -0.87,-9 z"
       style="fill:#e0e0e0" />
    <g
       id="freepik--shadows--inject-197">
      <path
         d="m 155.52,409.4 a 3.86,3.86 0 0 1 -3.73,-3.08 l -0.87,-4.56 a 50.84,50.84 0 0 1 -5.78,-1.42 H 145 l -8,3.72 a 4.49,4.49 0 0 1 -1.88,0.4 4.61,4.61 0 0 1 -2.27,-0.58 l -8,-4.62 a 3.25,3.25 0 0 1 -1.66,-2.64 3.2,3.2 0 0 1 1.39,-2.78 l 4.85,-3.49 a 18.77,18.77 0 0 1 -1.22,-1.83 l -10.2,-0.65 a 3.65,3.65 0 0 1 -3.42,-3.64 v -6 a 3.65,3.65 0 0 1 3.42,-3.64 l 10.2,-0.65 a 18.77,18.77 0 0 1 1.22,-1.83 l -4.85,-3.49 a 3.17,3.17 0 0 1 0.27,-5.42 l 8,-4.62 a 4.73,4.73 0 0 1 4.15,-0.19 l 8,3.73 h 0.11 c 0,0 0,0 0,0 a 51.55,51.55 0 0 1 5.85,-1.44 l 0.87,-4.56 a 3.83,3.83 0 0 1 3.73,-3.08 h 11.77 a 3.83,3.83 0 0 1 3.72,3.08 l 0.87,4.56 a 50.84,50.84 0 0 1 5.78,1.42 h 0.15 l 8,-3.73 a 4.75,4.75 0 0 1 4.16,0.19 l 8,4.62 a 3.17,3.17 0 0 1 0.27,5.42 l -4.84,3.49 a 20.64,20.64 0 0 1 1.21,1.83 l 10.2,0.65 a 3.65,3.65 0 0 1 3.42,3.64 v 6 a 3.65,3.65 0 0 1 -3.42,3.64 l -10.2,0.65 a 20.64,20.64 0 0 1 -1.21,1.83 l 4.84,3.48 a 3.18,3.18 0 0 1 -0.27,5.43 l -8,4.62 a 4.68,4.68 0 0 1 -2.28,0.58 4.57,4.57 0 0 1 -1.87,-0.39 l -8,-3.73 h -0.08 a 51.55,51.55 0 0 1 -5.85,1.44 l -0.87,4.56 a 3.84,3.84 0 0 1 -3.72,3.08 z m 5.88,-36.6 a 24.9,24.9 0 0 0 -12.23,2.88 c -2.74,1.59 -4.31,3.62 -4.31,5.57 0,1.95 1.57,4 4.31,5.57 a 27.32,27.32 0 0 0 24.46,0 c 2.74,-1.58 4.31,-3.61 4.31,-5.57 0,-1.96 -1.57,-4 -4.31,-5.57 A 24.9,24.9 0 0 0 161.4,372.8 Z"
         style="fill:#e0e0e0"
         id="path5" />
      <path
         d="M 70.79,365.73 A 3.42,3.42 0 0 1 70,365.64 l -9,-2.14 a 3.14,3.14 0 0 1 -2.14,-1.73 3.31,3.31 0 0 1 0.07,-2.91 l 1.36,-2.7 c -0.83,-0.45 -1.61,-0.93 -2.35,-1.43 l -8.06,1.35 a 4,4 0 0 1 -0.7,0.06 3.84,3.84 0 0 1 -3.12,-1.46 l -3.49,-4.86 -0.75,-0.45 0.14,-2.1 0.1,-0.19 a 2.81,2.81 0 0 1 0.26,-0.62 l 0.07,-0.11 a 3.62,3.62 0 0 1 1.94,-1.46 l 6.22,-2 c 0,-0.2 0,-0.41 0,-0.61 l -6.42,-2 a 3.09,3.09 0 0 1 -2.1,-2.37 l -0.06,-0.16 v -0.42 a 3.52,3.52 0 0 1 0.67,-2 l 3.24,-4.51 a 4.23,4.23 0 0 1 3.3,-1.72 3.66,3.66 0 0 1 0.57,0.05 l 8.25,1.36 v 0 c 0.55,-0.38 1.17,-0.77 1.83,-1.15 l 0.48,-0.27 -1.46,-2.88 a 3,3 0 0 1 -0.32,-1.39 3.3,3.3 0 0 1 2.66,-3.1 l 8.61,-2.06 a 4.28,4.28 0 0 1 1,-0.12 3.91,3.91 0 0 1 2.84,1.12 l 3.73,3.93 c 0.82,0 1.69,-0.07 2.55,-0.07 0.86,0 1.8,0 2.71,0.08 l 3.53,-3.72 a 4.44,4.44 0 0 1 3.1,-1.35 3.31,3.31 0 0 1 0.83,0.1 l 8.93,2.13 a 3.13,3.13 0 0 1 2.42,2.68 v 0.13 0.36 a 3.41,3.41 0 0 1 -0.39,1.5 l -1.34,2.66 0.43,0.24 a 22,22 0 0 1 1.9,1.2 l 8.07,-1.36 a 4.23,4.23 0 0 1 0.7,-0.06 3.81,3.81 0 0 1 3.13,1.47 l 3.57,5 a 3,3 0 0 1 0.56,1.73 v 0.17 a 3.32,3.32 0 0 1 -2.44,2.91 l -6.18,2 V 343 l 6.4,2 a 3.06,3.06 0 0 1 2.17,2.94 3.51,3.51 0 0 1 -0.64,2 l -3.27,4.56 a 4.18,4.18 0 0 1 -3.29,1.72 3.81,3.81 0 0 1 -0.59,-0.05 l -8.19,-1.38 v 0 a 26.06,26.06 0 0 1 -2.32,1.43 l 1.45,2.88 a 3,3 0 0 1 0,2.62 3.46,3.46 0 0 1 -2.36,1.87 l -8.64,2.06 a 4.27,4.27 0 0 1 -1,0.13 3.87,3.87 0 0 1 -2.83,-1.12 l -3.75,-3.94 c -0.83,0 -1.72,0.07 -2.6,0.07 -0.88,0 -1.77,0 -2.65,-0.07 l -3.53,3.71 a 4.4,4.4 0 0 1 -3.02,1.3 z M 68,340.23 a 2.65,2.65 0 0 0 -0.21,0.26 c -0.1,0.12 -0.17,0.23 -0.24,0.33 l -0.16,0.27 a 3,3 0 0 0 0.27,3.5 7.13,7.13 0 0 0 1.56,1.54 10.34,10.34 0 0 0 1.1,0.71 20.46,20.46 0 0 0 9.79,2.28 23.49,23.49 0 0 0 5.41,-0.62 16.79,16.79 0 0 0 4.36,-1.66 11.44,11.44 0 0 0 1.06,-0.68 7,7 0 0 0 1.78,-1.84 v 0 l 0.22,-0.38 0.09,-0.22 a 3,3 0 0 0 -0.51,-3 c -1.94,-2.71 -6.94,-4.53 -12.44,-4.53 a 23.49,23.49 0 0 0 -5.41,0.62 13.51,13.51 0 0 0 -6.41,3.2 z"
         style="fill:#e0e0e0"
         id="path7" />
    </g>
  </g>
  <g
     id="freepik--Gears--inject-197"
     transform="translate(-27.330002,-85.423868)">
    <g
       id="freepik--gears--inject-197">
      <path
         d="m 205.67,369.57 v -4.77 a 1.08,1.08 0 0 0 -1,-1.06 l -7.6,-0.48 v -10.66 0 a 0.64,0.64 0 0 0 -0.37,-0.58 l -8,-4.62 a 2.11,2.11 0 0 0 -1.77,-0.08 l -8.11,3.76 a 3,3 0 0 1 -1.86,0.11 47.06,47.06 0 0 0 -6.3,-1.5 1.53,1.53 0 0 1 -1.17,-1.14 l -1,-5.35 a 1.25,1.25 0 0 0 -1.18,-1 h -11.79 a 1.25,1.25 0 0 0 -1.19,1 l -1,5.35 a 1.52,1.52 0 0 1 -1.17,1.14 47.43,47.43 0 0 0 -6.3,1.5 2.93,2.93 0 0 1 -1.85,-0.12 l -8.12,-3.75 a 2.14,2.14 0 0 0 -1.77,0.07 l -8,4.63 a 0.66,0.66 0 0 0 -0.37,0.57 v 10.67 l -7.59,0.48 a 1.08,1.08 0 0 0 -1,1.06 v 6 0 4.17 0 5.95 0 c 0,0.13 0.1,0.23 0.14,0.34 a 1,1 0 0 0 0.16,0.38 1.1,1.1 0 0 0 0.51,0.24 c 0.07,0 0.11,0.09 0.19,0.09 h 0.14 l 7.45,0.47 v 0 6.14 0 4.56 0 c 0,0 0,0 0,0 a 0.56,0.56 0 0 0 0.06,0.21 c 0,0 0,0 0,0 a 0.81,0.81 0 0 0 0.28,0.27 l 8,4.62 v 0 a 1.69,1.69 0 0 0 0.77,0.2 h 0.21 a 1.31,1.31 0 0 0 0.28,0 v -0.05 a 1.86,1.86 0 0 0 0.49,-0.08 l 8.12,-3.76 a 2.93,2.93 0 0 1 1.85,-0.11 49.44,49.44 0 0 0 6.3,1.5 1.53,1.53 0 0 1 1.18,1.14 l 1,5.34 a 1.07,1.07 0 0 0 0.2,0.32 v 0.13 c 0,0.06 0.11,0.09 0.16,0.14 a 0.7,0.7 0 0 0 0.16,0.14 1.11,1.11 0 0 0 0.67,0.25 h 11.77 a 1.18,1.18 0 0 0 0.74,-0.27 v 0 a 1.19,1.19 0 0 0 0.44,-0.7 l 1,-5.34 a 1.52,1.52 0 0 1 1.17,-1.14 48.65,48.65 0 0 0 6.3,-1.5 3,3 0 0 1 1.86,0.11 l 8.11,3.76 a 1.87,1.87 0 0 0 0.76,0.14 v 0 a 2,2 0 0 0 1,-0.21 l 8,-4.62 a 0.65,0.65 0 0 0 0.37,-0.55 v 0 -10.7 l 7.6,-0.48 a 1.07,1.07 0 0 0 1,-1.06 v -11.11 a 0.76,0.76 0 0 0 0.07,-0.16 z m -29.18,5 a 16.86,16.86 0 0 1 -1.56,1 c -7.47,4.31 -19.58,4.31 -27.05,0 a 15.79,15.79 0 0 1 -1.57,-1 c 0.48,-0.34 1,-0.67 1.57,-1 7.47,-4.31 19.58,-4.31 27.05,0 0.56,0.32 1.07,0.65 1.56,0.99 z"
         style="fill:#37474f"
         id="path11" />
      <path
         d="m 205.7,369.78 v 11.11 a 1.08,1.08 0 0 1 -1,1.06 l -7.6,0.48 v 10.7 a 0.65,0.65 0 0 1 -0.37,0.55 l -8,4.62 a 2,2 0 0 1 -1,0.21 v 0 a 1.87,1.87 0 0 1 -0.76,-0.14 l -8.11,-3.76 a 2.23,2.23 0 0 0 -0.76,-0.18 v 0 a 2.81,2.81 0 0 0 -1.1,0.08 47,47 0 0 1 -6.3,1.49 1.51,1.51 0 0 0 -0.49,0.21 v 0.06 a 1.41,1.41 0 0 0 -0.68,0.88 l -1,5.34 a 1.18,1.18 0 0 1 -0.43,0.7 v 0 a 1.23,1.23 0 0 1 -0.75,0.27 h -11.83 -0.22 a 1.22,1.22 0 0 1 -0.77,-0.5 v -0.13 c -0.07,-0.11 -0.18,-0.19 -0.2,-0.32 l -1,-5.34 a 1.41,1.41 0 0 0 -0.48,-0.77 v 0 a 1.52,1.52 0 0 0 -0.7,-0.36 47.78,47.78 0 0 1 -6.3,-1.49 2.82,2.82 0 0 0 -1.24,-0.06 v 0 a 2.73,2.73 0 0 0 -0.61,0.14 l -8.12,3.76 a 1.79,1.79 0 0 1 -0.49,0.08 v 0.05 0 a 2,2 0 0 1 -1.26,-0.21 v 0 l -8,-4.62 a 1.26,1.26 0 0 1 -0.17,-0.13 0.91,0.91 0 0 1 -0.13,-0.16 0.67,0.67 0 0 1 -0.07,-0.24 v 0 -10.7 l -1.39,-0.1 -6.07,-0.38 h -0.14 a 1.08,1.08 0 0 1 -1,-1 v -10.22 a 1.08,1.08 0 0 0 1,1.06 l 10.67,0.67 a 2,2 0 0 1 1.45,1 16,16 0 0 0 2.26,3.15 0.83,0.83 0 0 1 -0.12,1.29 l -6.42,4.53 a 0.59,0.59 0 0 0 0,1.08 l 8,4.63 a 2.14,2.14 0 0 0 1.77,0.07 l 8.11,-3.75 a 2.9,2.9 0 0 1 1.86,-0.11 49,49 0 0 0 6.3,1.49 1.56,1.56 0 0 1 1.18,1.14 l 1,5.35 a 1.27,1.27 0 0 0 1.19,1 h 11.77 a 1.25,1.25 0 0 0 1.18,-1 l 1,-5.35 a 1.55,1.55 0 0 1 1.17,-1.14 47.06,47.06 0 0 0 6.3,-1.5 3,3 0 0 1 1.86,0.12 l 8.11,3.75 a 2.14,2.14 0 0 0 1.77,-0.07 l 8,-4.63 a 0.59,0.59 0 0 0 0,-1.08 l -6.34,-4.57 a 0.84,0.84 0 0 1 -0.12,-1.3 16.15,16.15 0 0 0 2.27,-3.14 2,2 0 0 1 1.44,-1 l 10.67,-0.67 a 1.08,1.08 0 0 0 1,-1.06 v -1.19 a 0.76,0.76 0 0 1 0.21,0.25 z"
         style="fill:#263238"
         id="path13" />
      <path
         d="m 197.08,352.6 v 10.66 l -3.07,-0.19 a 2,2 0 0 1 -1.44,-1 15.86,15.86 0 0 0 -2.27,-3.07 0.85,0.85 0 0 1 0.12,-1.31 l 6.34,-4.56 a 0.69,0.69 0 0 0 0.32,-0.5 z"
         style="fill:#263238"
         id="path15" />
      <path
         d="m 132.5,359 a 15.4,15.4 0 0 0 -2.26,3.14 2,2 0 0 1 -1.45,1 l -3.06,0.19 v -10.75 a 0.67,0.67 0 0 0 0.32,0.52 l 6.34,4.56 a 0.85,0.85 0 0 1 0.11,1.34 z"
         style="fill:#263238"
         id="path17" />
      <path
         d="m 134.1,347.39 -8,4.63 a 0.59,0.59 0 0 0 0,1.08 l 6.34,4.57 a 0.84,0.84 0 0 1 0.12,1.3 15.4,15.4 0 0 0 -2.26,3.14 2,2 0 0 1 -1.45,1 l -10.66,0.67 a 1.08,1.08 0 0 0 -1,1.06 v 6 a 1.08,1.08 0 0 0 1,1.06 l 10.66,0.67 a 2,2 0 0 1 1.45,1 15.4,15.4 0 0 0 2.26,3.14 0.85,0.85 0 0 1 -0.12,1.31 l -6.44,4.44 a 0.6,0.6 0 0 0 0,1.08 l 8,4.63 a 2.14,2.14 0 0 0 1.77,0.07 l 8.12,-3.75 a 2.94,2.94 0 0 1 1.85,-0.12 47.43,47.43 0 0 0 6.3,1.5 1.52,1.52 0 0 1 1.17,1.14 l 1,5.35 a 1.25,1.25 0 0 0 1.19,1 h 11.77 a 1.25,1.25 0 0 0 1.18,-1 l 1,-5.35 a 1.53,1.53 0 0 1 1.17,-1.14 47.06,47.06 0 0 0 6.3,-1.5 3,3 0 0 1 1.86,0.12 l 8.11,3.75 a 2.14,2.14 0 0 0 1.77,-0.07 l 8,-4.63 a 0.59,0.59 0 0 0 0,-1.08 l -6.34,-4.56 a 0.85,0.85 0 0 1 -0.12,-1.31 15.86,15.86 0 0 0 2.27,-3.14 2,2 0 0 1 1.44,-1 l 10.67,-0.67 a 1.08,1.08 0 0 0 1,-1.06 v -6 a 1.08,1.08 0 0 0 -1,-1.06 L 194,363.07 a 2,2 0 0 1 -1.44,-1 15.86,15.86 0 0 0 -2.26,-3.07 0.84,0.84 0 0 1 0.12,-1.3 l 6.34,-4.57 a 0.59,0.59 0 0 0 0,-1.08 l -8,-4.62 a 2.11,2.11 0 0 0 -1.77,-0.08 l -8.11,3.76 a 3,3 0 0 1 -1.86,0.11 47.06,47.06 0 0 0 -6.3,-1.5 1.53,1.53 0 0 1 -1.17,-1.14 l -1,-5.35 a 1.25,1.25 0 0 0 -1.18,-1 h -11.85 a 1.25,1.25 0 0 0 -1.19,1 l -1,5.35 a 1.52,1.52 0 0 1 -1.17,1.14 47.43,47.43 0 0 0 -6.3,1.5 2.93,2.93 0 0 1 -1.85,-0.12 l -8.12,-3.75 a 2.14,2.14 0 0 0 -1.79,0.04 z M 174.93,360 c 7.46,4.31 7.46,11.31 0,15.62 -7.46,4.31 -19.58,4.31 -27.05,0 -7.47,-4.31 -7.47,-11.31 0,-15.62 7.47,-4.31 19.58,-4.34 27.05,0 z"
         style="fill:#455a64"
         id="path19" />
      <path
         d="m 125.72,383 a 0.67,0.67 0 0 1 0.32,-0.53 l 3.19,-2.3 v -7.57 a 1.36,1.36 0 0 0 -0.44,-0.11 l -10.67,-0.67 a 1.08,1.08 0 0 1 -1,-1.06 v 10.15 a 1.08,1.08 0 0 0 1,1 h 0.14 l 6.07,0.38 1.39,0.1 z"
         style="fill:#37474f"
         id="path21" />
      <path
         d="m 144.6,384.32 a 2.66,2.66 0 0 0 -0.62,0.17 l -8.11,3.75 a 2.08,2.08 0 0 1 -1,0.14 v 10.13 a 2.44,2.44 0 0 0 0.54,0 v 0 -0.05 a 1.79,1.79 0 0 0 0.49,-0.08 l 8.12,-3.76 a 2.49,2.49 0 0 1 0.61,-0.14 z"
         style="fill:#37474f"
         id="path23" />
      <path
         d="m 154.48,392.74 a 1.37,1.37 0 0 1 -0.15,-0.38 l -1,-5.35 a 1.59,1.59 0 0 0 -0.16,-0.41 v 10.15 a 1.4,1.4 0 0 1 0.16,0.4 l 1,5.34 a 0.68,0.68 0 0 0 0.15,0.26 z"
         style="fill:#37474f"
         id="path25" />
      <path
         d="m 169.65,386.61 a 1.24,1.24 0 0 0 -0.16,0.4 l -1,5.35 a 1,1 0 0 1 -0.15,0.38 v 10.13 a 1,1 0 0 0 0.15,-0.38 l 1,-5.34 a 0.82,0.82 0 0 1 0.16,-0.37 z"
         style="opacity:0.15"
         id="path27" />
      <path
         d="m 188,388.37 a 2,2 0 0 1 -1,-0.13 l -8.11,-3.75 a 2.58,2.58 0 0 0 -0.61,-0.17 v 10.14 a 2.18,2.18 0 0 1 0.61,0.16 l 8.11,3.76 a 1.87,1.87 0 0 0 0.76,0.14 H 188 Z"
         style="opacity:0.15"
         id="path29" />
      <path
         d="m 204.68,371.82 -10.67,0.67 a 1.36,1.36 0 0 0 -0.44,0.11 v 7.56 l 3.19,2.3 a 0.67,0.67 0 0 1 0.32,0.54 v -0.57 l 7.6,-0.48 a 1.08,1.08 0 0 0 1,-1.06 v -11.11 a 0.76,0.76 0 0 0 0,-0.21 v 1.19 a 1.08,1.08 0 0 1 -1,1.06 z"
         style="opacity:0.15"
         id="path31" />
      <path
         d="m 44.54,334.49 c 0,0.46 0,8.84 0,9.07 a 0.4,0.4 0 0 0 0.08,0.23 l 3.56,5 a 1.45,1.45 0 0 0 1.31,0.38 l 8.21,-1.38 a 2.27,2.27 0 0 1 1.48,0.25 21.82,21.82 0 0 0 2,1.27 c 0,0 0,6.67 0,6.81 a 0.59,0.59 0 0 0 0.46,0.5 l 8.95,2.14 A 1.71,1.71 0 0 0 72,358.2 l 3.69,-3.89 a 2.23,2.23 0 0 1 1.51,-0.65 45.64,45.64 0 0 0 5.61,0 1.92,1.92 0 0 1 1.35,0.42 l 4.12,4.33 a 1.59,1.59 0 0 0 1.39,0.26 l 8.61,-2.05 c 0.42,-0.1 0.69,-0.37 0.67,-0.65 v -6.72 c 0.59,-0.34 1.15,-0.69 1.68,-1.06 a 2.64,2.64 0 0 1 1.62,-0.46 l 8.48,1.42 a 1.56,1.56 0 0 0 1.34,-0.62 l 3.24,-4.53 a 0.82,0.82 0 0 0 0.18,-0.52 c 0,-0.16 0,-2.82 0,-6.54 a 0.37,0.37 0 0 0 0.07,-0.2 c 0,-0.08 0,-12.16 0,-12.91 v 0 a 0.4,0.4 0 0 0 -0.08,-0.22 l -3.56,-5 a 1.48,1.48 0 0 0 -1.31,-0.38 l -8.21,1.39 a 2.4,2.4 0 0 1 -1.48,-0.25 21.88,21.88 0 0 0 -2,-1.28 c 0,-3.11 0,-6.31 0,-6.68 0,0 0,0 0,0 a 0.58,0.58 0 0 0 -0.46,-0.59 l -8.95,-2.14 a 1.71,1.71 0 0 0 -1.44,0.53 l -3.68,3.88 a 2.25,2.25 0 0 1 -1.51,0.66 43.75,43.75 0 0 0 -5.61,0 2,2 0 0 1 -1.35,-0.42 L 71.8,309 a 1.65,1.65 0 0 0 -1.39,-0.26 l -8.61,2.06 c -0.42,0.1 -0.68,0.36 -0.67,0.63 v 0 6.74 c -0.58,0.34 -1.15,0.7 -1.68,1.06 a 2.65,2.65 0 0 1 -1.62,0.47 l -8.48,-1.43 a 1.57,1.57 0 0 0 -1.34,0.63 l -3.24,4.52 a 0.9,0.9 0 0 0 -0.18,0.5 v 0 c 0,0.4 0,6.74 0,10.39 v 0 a 0.39,0.39 0 0 0 -0.06,0.2 v 0 z m 46.58,1.12 a 19.13,19.13 0 0 1 -5.05,1.93 c -6,1.44 -12.71,0.56 -17.07,-1.92 a 12.22,12.22 0 0 1 -1.36,-0.88 c 0.39,-0.27 0.81,-0.54 1.26,-0.8 6.14,-3.55 16.1,-3.55 22.25,0 0.46,0.27 0.89,0.54 1.28,0.81 a 12.9,12.9 0 0 1 -1.31,0.86 z"
         style="fill:#37474f"
         id="path33" />
      <path
         d="m 97,317.08 c 0.69,0.32 1.35,0.66 2,1 v -6.68 a 0.93,0.93 0 0 1 -0.1,0.34 L 96.68,316 a 0.78,0.78 0 0 0 0.32,1.08 z"
         style="fill:#263238"
         id="path35" />
      <path
         d="m 106.82,327.7 a 8.83,8.83 0 0 1 0,2.81 0.92,0.92 0 0 0 0.57,1 l 7.75,2.44 a 0.51,0.51 0 0 1 0.36,0.5 c 0,0.15 0,2.51 0,2.51 a 0.39,0.39 0 0 0 0.06,-0.18 c 0,-4.4 0,-11.75 0,-12.39 v -0.54 c 0,0.23 -0.25,0.46 -0.63,0.58 l -7.31,2.32 a 1,1 0 0 0 -0.8,0.95 z"
         style="opacity:0.15"
         id="path37" />
      <path
         d="m 102,338.65 v 9.08 a 1.55,1.55 0 0 1 0.31,0 l 8.48,1.42 a 0.92,0.92 0 0 0 0.43,0 v -9.07 a 1.17,1.17 0 0 1 -0.45,0 l -8.48,-1.43 a 0.91,0.91 0 0 0 -0.29,0 z"
         style="opacity:0.15"
         id="path39" />
      <path
         d="m 99,349.26 c 0.58,-0.34 1.15,-0.69 1.68,-1.06 a 3,3 0 0 1 1.31,-0.47 v -9.08 a 2.86,2.86 0 0 0 -1.32,0.48 25.6,25.6 0 0 1 -3.44,2 c -0.5,0.25 -0.78,0.68 -0.62,1 l 2.33,4.61 a 0.49,0.49 0 0 1 0,0.19 c 0.06,0.26 0.06,2.33 0.06,2.33 z"
         style="fill:#263238"
         id="path41" />
      <path
         d="m 83.67,344.72 v 9.08 a 1.29,1.29 0 0 1 0.52,0.29 l 4.12,4.33 a 1.23,1.23 0 0 0 0.75,0.3 v -9.08 a 1.26,1.26 0 0 1 -0.77,-0.29 L 84.17,345 a 1.2,1.2 0 0 0 -0.5,-0.28 z"
         style="opacity:0.15"
         id="path43" />
      <path
         d="m 76.69,344.67 v 9.08 a 1.6,1.6 0 0 1 0.54,-0.09 45.64,45.64 0 0 0 5.61,0 2.16,2.16 0 0 1 0.83,0.13 v -9.08 a 2,2 0 0 0 -0.85,-0.13 45.48,45.48 0 0 1 -5.6,0 1.51,1.51 0 0 0 -0.53,0.09 z"
         style="fill:#263238"
         id="path45" />
      <path
         d="m 71.21,349.6 v 9.08 a 1.94,1.94 0 0 0 0.82,-0.48 l 3.69,-3.89 a 2.47,2.47 0 0 1 1,-0.56 v -9.08 a 2.34,2.34 0 0 0 -1,0.57 L 72,349.12 a 2,2 0 0 1 -0.79,0.48 z"
         style="opacity:0.15"
         id="path47" />
      <path
         d="m 61.18,347 v 2.25 0 3.56 c 0,1.61 0,3.18 0,3.25 a 0.59,0.59 0 0 0 0.46,0.5 l 8.95,2.13 a 1.18,1.18 0 0 0 0.61,0 v -9.09 a 1.27,1.27 0 0 1 -0.63,0 l -8.95,-2.14 A 0.55,0.55 0 0 1 61.18,347 Z"
         style="fill:#37474f"
         id="path49" />
      <path
         d="m 58.29,338.66 v 9.08 a 2.08,2.08 0 0 1 0.9,0.27 21.82,21.82 0 0 0 2,1.27 c 0,0 0,-2.08 0,-2.36 a 0.87,0.87 0 0 1 0.09,-0.37 l 2.15,-4.26 a 0.76,0.76 0 0 0 -0.27,-1.07 25.73,25.73 0 0 1 -4,-2.28 1.76,1.76 0 0 0 -0.87,-0.28 z"
         style="opacity:0.15"
         id="path51" />
      <path
         d="m 44.54,334.5 c 0,0.45 0,8.82 0,9.06 a 0.4,0.4 0 0 0 0.08,0.23 l 3.57,5 a 1.07,1.07 0 0 0 0.61,0.35 V 340 a 1.09,1.09 0 0 1 -0.64,-0.36 l -3.56,-5 a 0.33,0.33 0 0 1 -0.06,-0.14 z"
         style="fill:#37474f"
         id="path53" />
      <path
         d="m 98.46,310.79 -8.95,-2.14 a 1.71,1.71 0 0 0 -1.44,0.53 l -3.68,3.88 a 2.25,2.25 0 0 1 -1.51,0.66 43.75,43.75 0 0 0 -5.61,0 2,2 0 0 1 -1.35,-0.42 L 71.8,309 a 1.65,1.65 0 0 0 -1.39,-0.26 l -8.61,2.06 c -0.42,0.1 -0.68,0.36 -0.67,0.63 a 0.39,0.39 0 0 0 0,0.18 l 2.33,4.63 c 0.17,0.32 -0.11,0.77 -0.62,1 -0.51,0.23 -1.19,0.6 -1.75,0.91 -0.56,0.31 -1.15,0.7 -1.68,1.06 a 2.65,2.65 0 0 1 -1.62,0.47 l -8.48,-1.43 a 1.57,1.57 0 0 0 -1.34,0.63 l -3.24,4.52 a 0.9,0.9 0 0 0 -0.18,0.5 v 0 a 0.49,0.49 0 0 0 0.36,0.47 l 7.74,2.46 a 0.9,0.9 0 0 1 0.58,1 8.77,8.77 0 0 0 0,2.8 c 0.07,0.37 -0.28,0.8 -0.8,1 l -7.31,2.31 a 1,1 0 0 0 -0.56,0.39 v 0 a 0.39,0.39 0 0 0 -0.06,0.2 v 0 0 a 0.36,0.36 0 0 0 0.07,0.22 l 3.57,5 a 1.41,1.41 0 0 0 1.3,0.38 l 8.22,-1.38 a 2.19,2.19 0 0 1 1.47,0.26 25.73,25.73 0 0 0 4,2.28 0.77,0.77 0 0 1 0.27,1.08 l -2.14,4.25 a 0.62,0.62 0 0 0 0.36,1 l 8.95,2.14 a 1.74,1.74 0 0 0 1.44,-0.53 l 3.69,-3.88 a 2.15,2.15 0 0 1 1.51,-0.65 47.56,47.56 0 0 0 5.6,0 2,2 0 0 1 1.35,0.42 l 4.13,4.34 a 1.62,1.62 0 0 0 1.38,0.26 l 8.61,-2.06 c 0.51,-0.13 0.8,-0.49 0.63,-0.82 l -2.33,-4.61 c -0.16,-0.33 0.12,-0.77 0.62,-1 a 24.59,24.59 0 0 0 3.44,-2 2.54,2.54 0 0 1 1.61,-0.46 l 8.48,1.43 a 1.55,1.55 0 0 0 1.34,-0.63 l 3.25,-4.52 a 1,1 0 0 0 0.18,-0.5 0.49,0.49 0 0 0 -0.37,-0.49 l -7.74,-2.45 a 0.91,0.91 0 0 1 -0.57,-1 8.77,8.77 0 0 0 0,-2.8 1,1 0 0 1 0.8,-1 l 7.31,-2.32 c 0.38,-0.12 0.61,-0.35 0.63,-0.58 v 0 a 0.4,0.4 0 0 0 -0.08,-0.22 l -3.56,-5 a 1.48,1.48 0 0 0 -1.31,-0.38 l -8.21,1.39 a 2.4,2.4 0 0 1 -1.48,-0.25 21.88,21.88 0 0 0 -2,-1.28 c -0.63,-0.35 -1.29,-0.69 -2,-1 a 0.78,0.78 0 0 1 -0.27,-1.08 l 2.15,-4.25 a 0.75,0.75 0 0 0 0.09,-0.34 c 0,0 0,0 0,0 a 0.58,0.58 0 0 0 -0.43,-0.71 z M 74,320.76 c 8,-1.93 17.23,0.28 20.56,4.91 a 5.58,5.58 0 0 1 0.8,5.5 1.08,1.08 0 0 1 -0.08,0.19 l -0.09,0.19 a 0.76,0.76 0 0 1 -0.09,0.18 8.79,8.79 0 0 1 -2.69,3 12.9,12.9 0 0 1 -1.31,0.86 19.13,19.13 0 0 1 -5.05,1.93 c -6,1.44 -12.71,0.56 -17.07,-1.92 a 12.22,12.22 0 0 1 -1.36,-0.88 9.92,9.92 0 0 1 -2.13,-2.11 5.59,5.59 0 0 1 -0.43,-6.28 l 0.08,-0.14 0.19,-0.3 c 0.11,-0.16 0.22,-0.32 0.34,-0.47 l 0.31,-0.39 0.16,-0.16 0.22,-0.23 A 15.72,15.72 0 0 1 74,320.76 Z"
         style="fill:#455a64"
         id="path55" />
    </g>
  </g>
  <g
     id="freepik--Robot--inject-197"
     transform="translate(-27.330002,-85.423868)">
    <g
       id="freepik--robot--inject-197">
      <path
         d="m 364.78,326.84 a 6.24,6.24 0 0 1 -1.13,-0.1 l -63.72,-12 a 6.0102766,6.0102766 0 1 1 2.24,-11.81 l 63.72,12 a 6,6 0 0 1 -1.11,11.92 z"
         style="fill:#455a64"
         id="path59" />
      <path
         d="M 351.12,325 H 351 c -2.08,-0.39 -3,-2.93 -2.4,-6.3 0.68,-3.66 3.08,-7 6.32,-6.42 a 0.60110315,0.60110315 0 1 1 -0.23,1.18 c -2.45,-0.46 -4.35,2.47 -4.91,5.46 -0.41,2.15 -0.13,4.6 1.44,4.9 a 0.6,0.6 0 0 1 -0.11,1.19 z"
         style="fill:#37474f"
         id="path61" />
      <path
         d="m 340.51,323 h -0.11 a 3,3 0 0 1 -2.26,-2.13 c -0.89,-2.54 0,-6.61 2,-8.89 a 4.32,4.32 0 0 1 4.18,-1.7 0.61,0.61 0 0 1 -0.22,1.19 3.14,3.14 0 0 0 -3,1.29 c -1.66,1.93 -2.5,5.61 -1.76,7.71 a 1.81,1.81 0 0 0 1.34,1.35 0.6,0.6 0 0 1 -0.11,1.19 z"
         style="fill:#37474f"
         id="path63" />
      <path
         d="m 329.9,321 h -0.12 c -2.07,-0.39 -3,-2.93 -2.4,-6.31 0.69,-3.65 3.08,-7 6.32,-6.41 a 0.60016664,0.60016664 0 1 1 -0.22,1.18 c -2.46,-0.47 -4.35,2.47 -4.92,5.46 -0.4,2.15 -0.13,4.6 1.45,4.89 a 0.62,0.62 0 0 1 0.48,0.71 0.61,0.61 0 0 1 -0.59,0.48 z"
         style="fill:#37474f"
         id="path65" />
      <path
         d="m 319.28,319 h -0.11 a 3,3 0 0 1 -2.26,-2.14 c -0.89,-2.53 0,-6.6 2,-8.89 a 4.32,4.32 0 0 1 4.19,-1.69 0.60110315,0.60110315 0 1 1 -0.23,1.18 3.18,3.18 0 0 0 -3.05,1.3 c -1.66,1.93 -2.5,5.6 -1.76,7.71 a 1.81,1.81 0 0 0 1.34,1.35 0.6,0.6 0 0 1 -0.11,1.19 z"
         style="fill:#37474f"
         id="path67" />
      <path
         d="m 308.67,317 h -0.11 c -2.08,-0.39 -3.05,-2.92 -2.41,-6.3 0.69,-3.65 3.09,-7 6.32,-6.42 a 0.61,0.61 0 0 1 -0.22,1.19 c -2.44,-0.46 -4.35,2.46 -4.92,5.45 -0.4,2.15 -0.12,4.6 1.45,4.9 a 0.6,0.6 0 0 1 0.48,0.7 0.62,0.62 0 0 1 -0.59,0.48 z"
         style="fill:#37474f"
         id="path69" />
      <path
         d="m 295,308.82 a 6,6 0 0 0 4.89,5.88 l 63.72,12 a 6.24,6.24 0 0 0 1.13,0.1 6,6 0 0 0 5.9,-4.9 v -0.21 z"
         style="opacity:0.15"
         id="path71" />
      <path
         d="m 433.42,274.36 c -4.76,-1.26 -12.25,-1.65 -18.56,3.38 -5.14,4.1 -11.08,22.59 -13.07,29 l -33.69,-0.08 v 0 a 8.67,8.67 0 0 0 -4.93,2.34 c -5.64,5.6 -6.71,11.86 -6.23,17.82 0.3,3.68 2.8,6.22 4.59,6.53 v 0 c 0.54,0.11 44.86,9.08 51.15,10.19 10.47,1.85 8.19,1.83 14.38,-7.05 4.07,-5.83 4.07,-14.45 4.07,-20.15 0,-5.7 2.56,-15.13 4.72,-22.52 2.16,-7.39 2.33,-18.2 -2.43,-19.46 z"
         style="fill:#407bff"
         id="path73" />
      <path
         d="m 426.66,274.49 c -5.6,2.08 -9.07,7 -10.77,14.53 -1.7,7.53 -0.19,13.76 -1.78,24.63 a 64.19,64.19 0 0 1 -5.6,17.05 c -2.16,4.09 -5.23,5.79 -11,4.79 -5.77,-1 -26.15,-4 -31.48,-6.47 a 8.27,8.27 0 0 1 -4.9,-7.82 29.28,29.28 0 0 0 10.12,-1.86 c 4.55,-1.92 4.21,-4.1 4.07,-5.29 l -5.5,-7.39 h -1.7 a 8.67,8.67 0 0 0 -4.93,2.34 c -5.64,5.6 -6.71,11.86 -6.23,17.82 0.3,3.68 2.8,6.22 4.59,6.53 v 0 c 0.54,0.11 44.86,9.08 51.15,10.19 10.47,1.85 8.19,1.83 14.38,-7.05 4.07,-5.83 4.07,-14.45 4.07,-20.15 0,-5.7 2.56,-15.13 4.72,-22.52 a 37.43,37.43 0 0 0 1.37,-7.78 c -4.24,-6.94 -8.4,-12.37 -10.58,-11.55 z"
         style="opacity:0.15"
         id="path75" />
      <path
         d="m 433.42,274.36 -0.93,-0.23 v 0 a 25.25,25.25 0 0 0 -3.12,-0.48 c -7.19,1.44 -10.58,7.8 -11.61,16.54 -1.03,8.74 -0.09,18.53 -0.73,24.62 -0.64,6.09 -4.43,15.89 -4.18,22.36 A 11.36,11.36 0 0 0 415,344 c 7.79,1.37 6.35,0.67 12,-7.47 4.07,-5.83 4.07,-14.45 4.07,-20.15 0,-5.7 2.56,-15.13 4.72,-22.52 2.16,-7.39 2.39,-18.24 -2.37,-19.5 z"
         style="fill:#455a64"
         id="path77" />
      <path
         d="m 401.79,306.74 a 150.84,150.84 0 0 0 -3.21,16.69 61.1,61.1 0 0 1 0,-16.69 z"
         style="opacity:0.15"
         id="path79" />
      <path
         d="m 423,284.35 c -3.27,8.4 -2,21.16 -2.72,29.42 -0.72,8.26 -4.46,19.82 -3.89,24.19 0.57,4.37 2.76,7.42 6.1,5.47 a 14,14 0 0 0 4.17,-5 c 1,-1.93 1.69,-4 2.17,-5.19 2.31,-5.48 2.31,-12.19 2.31,-16.91 0,-5.7 2.56,-15.13 4.72,-22.52 1.62,-5.53 2.12,-13 0.27,-16.88 -1.44,-3.2 -9.54,-1.81 -13.13,7.42 z"
         style="fill:#37474f"
         id="path81" />
      <path
         d="m 420.56,305.41 c 0,0.39 0,0.78 0,1.17 l 14,-8.07 c 0.12,-0.46 0.25,-0.92 0.38,-1.38 z"
         style="fill:#263238"
         id="path83" />
      <path
         d="m 436.42,277.63 -13.87,8 c -0.14,0.45 -0.27,0.91 -0.4,1.39 l 14.58,-8.42 c -0.09,-0.33 -0.2,-0.66 -0.31,-0.97 z"
         style="fill:#263238"
         id="path85" />
      <path
         d="m 433,304.45 -12.58,7.26 c 0,0.41 -0.05,0.81 -0.07,1.2 l 12.33,-7.12 c 0.09,-0.45 0.2,-0.89 0.32,-1.34 z"
         style="fill:#263238"
         id="path87" />
      <path
         d="m 418,326.65 13.13,-7.58 c 0,-0.39 0,-0.78 0,-1.16 l -12.86,7.43 c -0.09,0.44 -0.18,0.88 -0.27,1.31 z"
         style="fill:#263238"
         id="path89" />
      <path
         d="m 420.68,299.14 v 1.17 l 15.87,-9.16 c 0.09,-0.43 0.17,-0.86 0.25,-1.3 z"
         style="fill:#263238"
         id="path91" />
      <path
         d="m 419.66,318.35 c -0.08,0.43 -0.15,0.86 -0.23,1.29 l 12,-6.91 c 0.05,-0.41 0.11,-0.83 0.17,-1.25 z"
         style="fill:#263238"
         id="path93" />
      <path
         d="m 437.3,284.49 c 0,-0.39 0,-0.78 0,-1.16 l -16.17,9.34 c 0,0.41 -0.09,0.81 -0.13,1.23 z"
         style="fill:#263238"
         id="path95" />
      <path
         d="m 429.06,332.69 c 0.18,-0.48 0.34,-1 0.5,-1.45 l -13,7.52 a 6.41,6.41 0 0 0 0.3,1 z"
         style="fill:#263238"
         id="path97" />
      <path
         d="m 430.73,325.56 c 0,-0.42 0.1,-0.83 0.14,-1.24 l -14,8.12 c -0.08,0.44 -0.15,0.87 -0.21,1.28 z"
         style="fill:#263238"
         id="path99" />
      <path
         d="m 360.9,318.65 c 7.78,0.74 14.1,-2.09 14.4,-4.6 0,0 1.88,-10.48 -12,-11.6 -13.88,-1.12 -14.26,9.05 -14.26,9.05 -0.04,2.4 4.07,6.42 11.86,7.15 z"
         style="fill:#407bff"
         id="path101" />
      <path
         d="m 360.9,318.65 c 7.78,0.74 14.1,-2.09 14.4,-4.6 0,0 1.88,-10.48 -12,-11.6 -13.88,-1.12 -14.26,9.05 -14.26,9.05 -0.04,2.4 4.07,6.42 11.86,7.15 z"
         style="opacity:0.7;fill:#ffffff"
         id="path103" />
      <path
         d="m 375.3,314.05 a 9.7,9.7 0 0 0 -2.54,-7.93 c 0.53,1 2.75,6.1 -5.38,8.44 -9.06,2.59 -17.37,-3.1 -17.83,-5.34 v 0 a 8.7,8.7 0 0 0 -0.5,2.28 c 0,2.4 4.06,6.42 11.85,7.15 7.79,0.73 14.1,-2.09 14.4,-4.6 z"
         style="fill:#407bff"
         id="path105" />
      <path
         d="m 375.3,314.05 a 9.7,9.7 0 0 0 -2.54,-7.93 c 0.53,1 2.75,6.1 -5.38,8.44 -9.06,2.59 -17.37,-3.1 -17.83,-5.34 v 0 a 8.7,8.7 0 0 0 -0.5,2.28 c 0,2.4 4.06,6.42 11.85,7.15 7.79,0.73 14.1,-2.09 14.4,-4.6 z"
         style="opacity:0.05"
         id="path107" />
      <path
         d="m 345.66,218.05 c -0.2,-2.17 -1,-6.68 -4.79,-8.46 -3.79,-1.78 -5.84,0 -5.3,1.66 0.54,1.66 4.45,2.19 4.61,7.89 0,0 3.4,1.47 5.48,-1.09 z"
         style="fill:#455a64"
         id="path109" />
      <path
         d="m 342.36,217.17 a 8.77,8.77 0 0 0 -4,-5.94 c -1.21,-0.95 -1.4,-1.94 0,-2.36 -2.16,-0.19 -3.23,1.12 -2.82,2.38 0.55,1.69 4.45,2.19 4.61,7.89 a 6.05,6.05 0 0 0 2.45,0.41 c -0.02,-0.71 -0.11,-1.55 -0.24,-2.38 z"
         style="opacity:0.15"
         id="path111" />
      <path
         d="m 337.52,222 c 2.45,-5 10.23,-5.64 16.28,0 9.08,8.47 10.57,16.86 6.74,21.32 -3.83,4.46 -9.68,3.18 -14.88,-1.5 -4,-3.63 -11.66,-12.65 -8.14,-19.82 z"
         style="fill:#407bff"
         id="path113" />
      <path
         d="m 360.54,243.3 a 8.37,8.37 0 0 0 1.95,-5.06 c -0.47,2.5 -1.73,4.27 -3.43,4.87 -2.08,0.74 -5.78,1.89 -11.92,-4.46 -6.14,-6.35 -9.36,-16.9 -5.18,-20.27 a 7,7 0 0 0 -4.44,3.6 c -3.54,7.19 4.14,16.21 8.14,19.82 5.2,4.68 11.05,5.97 14.88,1.5 z"
         style="opacity:0.1"
         id="path115" />
      <path
         d="m 324.41,241.33 c -15.39,-8.19 -23.77,-12.28 -31.35,-8.35 l -3.69,-7.12 c 11.67,-6.05 23.05,0 38.81,8.4 z"
         style="fill:#455a64"
         id="path117" />
      <path
         d="m 303.56,232.51 a 0.52,0.52 0 0 1 -0.41,-0.82 5.63,5.63 0 0 0 0.87,-4.22 5.3,5.3 0 0 0 -1.79,-3.42 0.51,0.51 0 1 1 0.59,-0.83 6.21,6.21 0 0 1 2.21,4.09 6.67,6.67 0 0 1 -1.06,5 0.51,0.51 0 0 1 -0.41,0.2 z"
         style="fill:#37474f"
         id="path119" />
      <path
         d="m 312,235.55 a 0.52,0.52 0 0 1 -0.37,-0.87 6.06,6.06 0 0 0 1.57,-4.58 5,5 0 0 0 -1.18,-3.27 0.51151735,0.51151735 0 1 1 0.65,-0.79 5.8,5.8 0 0 1 1.55,4 7.06,7.06 0 0 1 -1.86,5.36 0.51,0.51 0 0 1 -0.36,0.15 z"
         style="fill:#37474f"
         id="path121" />
      <path
         d="m 293.06,233 c 7.58,-3.93 16,0.16 31.35,8.35 l 1.56,-2.92 a 89.54,89.54 0 0 0 -11,-6 c -10.83,-4.9 -14.95,-5.45 -23.44,-2.28 z"
         style="opacity:0.15"
         id="path123" />
      <circle
         cx="283.82001"
         cy="231.03"
         r="13"
         transform="rotate(-22.5,283.82012,231.03828)"
         style="fill:#407bff"
         id="circle125" />
      <circle
         cx="283.82001"
         cy="231.03"
         r="13"
         transform="rotate(-22.5,283.82012,231.03828)"
         style="opacity:0.25"
         id="circle127" />
      <circle
         cx="270.95001"
         cy="302.07999"
         r="32.34"
         style="fill:#407bff"
         id="circle129" />
      <circle
         cx="270.95001"
         cy="302.07999"
         r="32.34"
         style="opacity:0.35"
         id="circle131" />
      <path
         d="m 273,327.42 c -8,-0.92 -11.82,-5.75 -11.82,-5.75 0,0 28.06,0.08 41.5,-26 a 32.38,32.38 0 0 0 -17.36,-22.56 l -37.79,6.72 a 32.34,32.34 0 1 0 51.15,39 c -6.46,7.59 -17.56,9.54 -25.68,8.59 z"
         style="opacity:0.15"
         id="path133" />
      <path
         d="m 302.42,284.8 v 0 l -0.17,-0.34 c -0.05,-0.09 -0.09,-0.18 -0.13,-0.26 a 154.46,154.46 0 0 1 -8.81,-24 139.68,139.68 0 0 1 -4.64,-29.78 h -74.54 c 0,27.92 5.36,55.35 17.57,76.58 v 0 c 2.08,4.09 6.48,7.47 13,9.45 16.09,4.87 39.07,-0.51 51.33,-12 7.1,-6.6 9.05,-13.8 6.39,-19.65 z"
         style="fill:#407bff"
         id="path135" />
      <path
         d="m 294.25,306.06 c -5.22,3.84 -17.06,8.61 -25.92,8.53 -10.14,-0.1 -30.47,-5.72 -37.74,-21.59 -7.27,-15.87 -9.59,-45.23 -9.59,-45.23 0,0 8.61,4.94 28.1,4.46 l -2.55,-21.78 h -32.4 c 0,27.92 5.36,55.35 17.57,76.58 v 0 c 2.08,4.09 6.48,7.47 13,9.45 15.34,4.64 36.92,-0.03 49.53,-10.42 z"
         style="opacity:0.1"
         id="path137" />
      <path
         d="m 298.16,274.83 c -0.1,-0.27 -0.21,-0.54 -0.31,-0.82 -0.1,-0.28 -0.12,-0.32 -0.19,-0.48 v -0.11 c -1.35,-3.65 -2.85,-8.08 -4.31,-13.19 a 126.4,126.4 0 0 1 -3.55,-17.65 v -0.08 c 0.83,6.05 -2.76,12.28 -10.8,16.91 -9.6,5.54 -23.14,7.44 -35.42,5.66 1.44,13.77 6.08,28.26 13.72,39.18 12,0.88 26.09,-3.57 34.07,-11 6.49,-6.18 8.63,-12.82 6.79,-18.42 z"
         style="fill:#37474f"
         id="path139" />
      <path
         d="m 296.26,274.1 c -0.1,-0.26 -0.19,-0.54 -0.29,-0.82 l -0.18,-0.48 v -0.11 c -1.28,-3.68 -2.7,-8.14 -4.05,-13.27 a 112.71,112.71 0 0 1 -2.38,-11.59 c -1.25,4.24 -4.7,8.31 -10.38,11.58 -9.6,5.54 -23.14,7.44 -35.42,5.66 1.34,12.76 5.42,26.12 12.09,36.7 11.66,0.73 25.66,-2.42 33.44,-9.42 6.63,-6.01 8.91,-12.61 7.17,-18.25 z"
         style="fill:#455a64"
         id="path141" />
      <path
         d="m 274.18,270.69 -3.76,-1.7 c 0,0 -13.73,3.21 -22,2.44 a 53.23,53.23 0 0 0 1.58,12.19 39.64,39.64 0 0 0 4.5,10.82 l 4.33,2.1 z"
         style="fill:#263238"
         id="path143" />
      <path
         d="m 251.49,274.86 c 0,5.23 4.33,18.09 7.35,21.68 0,0 15.17,-0.71 21.7,-6.69 -0.21,-1.67 -6.36,-19.16 -6.36,-19.16 -4.01,2.96 -15.86,4.18 -22.69,4.17 z"
         style="fill:#37474f"
         id="path145" />
      <circle
         cx="275.79001"
         cy="287.53"
         r="1.51"
         style="fill:#407bff"
         id="circle147" />
      <circle
         cx="271.16"
         cy="289.04001"
         r="0.74000001"
         style="fill:#407bff"
         id="circle149" />
      <path
         d="m 275.07,279.12 a 0.48,0.48 0 0 1 -0.2,0 0.5,0.5 0 0 1 -0.46,-0.3 0.52,0.52 0 0 1 0.27,-0.66 2.94,2.94 0 0 0 1.7,-3.51 l -3.53,-12.42 c 0.31,-0.12 0.63,-0.24 0.93,-0.37 l 3.56,12.52 a 3.93,3.93 0 0 1 -2.27,4.74 z"
         style="fill:#407bff"
         id="path151" />
      <path
         d="m 269,281.05 a 0.48,0.48 0 0 1 -0.2,0 0.51,0.51 0 0 1 -0.46,-0.31 0.52,0.52 0 0 1 0.27,-0.66 2.93,2.93 0 0 0 1.69,-3.5 l -3.55,-12.52 1,-0.24 3.55,12.49 a 3.93,3.93 0 0 1 -2.3,4.74 z"
         style="fill:#407bff"
         id="path153" />
      <path
         d="m 263,283 a 0.43,0.43 0 0 1 -0.19,0 0.5,0.5 0 0 1 -0.47,-0.3 0.52,0.52 0 0 1 0.27,-0.66 2.93,2.93 0 0 0 1.69,-3.51 l -3.78,-13.31 1,-0.13 3.73,13.17 A 3.92,3.92 0 0 1 263,283 Z"
         style="fill:#407bff"
         id="path155" />
      <g
         style="opacity:0.3"
         id="g163">
        <path
           d="m 275.07,279.12 a 0.48,0.48 0 0 1 -0.2,0 0.5,0.5 0 0 1 -0.46,-0.3 0.52,0.52 0 0 1 0.27,-0.66 2.94,2.94 0 0 0 1.7,-3.51 l -3.53,-12.42 c 0.31,-0.12 0.63,-0.24 0.93,-0.37 l 3.56,12.52 a 3.93,3.93 0 0 1 -2.27,4.74 z"
           id="path157" />
        <path
           d="m 269,281.05 a 0.48,0.48 0 0 1 -0.2,0 0.51,0.51 0 0 1 -0.46,-0.31 0.52,0.52 0 0 1 0.27,-0.66 2.93,2.93 0 0 0 1.69,-3.5 l -3.55,-12.52 1,-0.24 3.55,12.49 a 3.93,3.93 0 0 1 -2.3,4.74 z"
           id="path159" />
        <path
           d="m 263,283 a 0.43,0.43 0 0 1 -0.19,0 0.5,0.5 0 0 1 -0.47,-0.3 0.52,0.52 0 0 1 0.27,-0.66 2.93,2.93 0 0 0 1.69,-3.51 l -3.78,-13.31 1,-0.13 3.73,13.17 A 3.92,3.92 0 0 1 263,283 Z"
           id="path161" />
      </g>
      <path
         d="m 279,259.41 c -0.77,0.45 -1.58,0.86 -2.4,1.26 0.88,4.47 2.5,11.42 4.14,15.19 0,0 8,-2.42 10.65,-7.68 a 124.51,124.51 0 0 1 -4,-16.19 24.77,24.77 0 0 1 -8.39,7.42 z"
         style="fill:#37474f"
         id="path165" />
      <path
         d="m 286.28,258.28 a 0.87,0.87 0 1 1 -0.87,-0.87 0.87,0.87 0 0 1 0.87,0.87 z"
         style="fill:#407bff"
         id="path167" />
      <path
         d="m 287.51,262.23 a 0.87,0.87 0 1 1 -0.86,-0.87 0.86,0.86 0 0 1 0.86,0.87 z"
         style="fill:#407bff"
         id="path169" />
      <path
         d="m 289.25,266.25 a 0.87,0.87 0 1 1 -0.87,-0.87 0.87,0.87 0 0 1 0.87,0.87 z"
         style="fill:#407bff"
         id="path171" />
      <path
         d="m 282.12,272.73 a 0.51,0.51 0 0 1 -0.47,-0.31 93.61,93.61 0 0 1 -2.78,-10.81 0.51,0.51 0 0 1 0.41,-0.58 0.52,0.52 0 0 1 0.58,0.42 94.68,94.68 0 0 0 2.72,10.55 0.5,0.5 0 0 1 -0.27,0.65 0.46,0.46 0 0 1 -0.19,0.08 z"
         style="fill:#407bff"
         id="path173" />
      <path
         d="m 284.87,271 a 0.51,0.51 0 0 1 -0.47,-0.31 95.71,95.71 0 0 1 -2.78,-10.81 0.50717354,0.50717354 0 0 1 1,-0.17 93.55,93.55 0 0 0 2.72,10.59 0.51,0.51 0 0 1 -0.27,0.66 0.65,0.65 0 0 1 -0.2,0.04 z"
         style="fill:#407bff"
         id="path175" />
      <path
         d="m 349.73,264.32 c 0,0 -6.49,10.29 -21.47,15.77 a 65.3,65.3 0 0 1 -26.33,3.68 157.39,157.39 0 0 1 -8.61,-23.54 125.25,125.25 0 0 1 -3.55,-17.65 c 0,0 11.56,1.5 23.94,-6.25 14.12,-8.83 17.35,-18.3 17.35,-18.3 8.76,12.35 14.94,27.91 18.67,46.29 z"
         style="fill:#407bff"
         id="path177" />
      <path
         d="m 349.73,264.32 c 0,0 -6.49,10.29 -21.47,15.77 a 65.3,65.3 0 0 1 -26.33,3.68 157.39,157.39 0 0 1 -8.61,-23.54 125.25,125.25 0 0 1 -3.55,-17.65 c 0,0 11.56,1.5 23.94,-6.25 14.12,-8.83 17.35,-18.3 17.35,-18.3 8.76,12.35 14.94,27.91 18.67,46.29 z"
         style="opacity:0.25"
         id="path179" />
      <path
         d="m 349.73,264.32 c -3.77,-18.38 -9.91,-33.94 -18.67,-46.29 a 19.2,19.2 0 0 1 -1.64,3.24 c 7.48,8.72 16.51,30.46 18,46 a 26.57,26.57 0 0 0 2.31,-2.95 z"
         style="opacity:0.25"
         id="path181" />
      <circle
         cx="331.84"
         cy="249.75999"
         r="2.5699999"
         style="fill:#37474f"
         id="circle183" />
      <ellipse
         cx="251.39999"
         cy="230.74001"
         rx="37.279999"
         ry="21.52"
         style="fill:#407bff"
         id="ellipse185" />
      <ellipse
         cx="251.39999"
         cy="230.74001"
         rx="37.279999"
         ry="21.52"
         style="opacity:0.5;fill:#ffffff"
         id="ellipse187" />
      <path
         d="m 225,215.52 c -5.68,3.29 -9.14,7.36 -10.38,11.61 1,3.68 3.94,7.21 8.84,10 12.31,7.11 32.26,7.11 44.57,0 12.31,-7.11 12.3,-18.5 0.2,-25.61 -13.95,-4.07 -31.49,-2.75 -43.23,4 z"
         style="opacity:0.1"
         id="path189" />
      <path
         d="m 300.33,273 a 7.57,7.57 0 0 0 -4.89,-1.19 9.36,9.36 0 0 0 -5.39,2.37 5.44,5.44 0 0 0 -0.48,0.48 9.2,9.2 0 0 0 -4.94,3.26 7,7 0 0 0 -1.34,2.86 5.44,5.44 0 0 0 -1.2,2.71 6.11,6.11 0 0 0 1.27,4.38 9.33,9.33 0 0 0 6.65,3.62 c 0.51,-0.5 1,-1 1.45,-1.51 a 8.12,8.12 0 0 1 -5.34,-1.55 5.67,5.67 0 0 1 -2.62,-4.76 v 0.1 a 6.89,6.89 0 0 0 4,3.82 5,5 0 0 0 5.2,-0.71 4.23,4.23 0 0 0 1,-1.38 7.4,7.4 0 0 0 0.94,0 4.71,4.71 0 0 0 4.32,-2.25 5.73,5.73 0 0 0 0.13,-4.79 6,6 0 0 0 -2.51,-2.93 7.22,7.22 0 0 0 -1.18,-0.59 9.39,9.39 0 0 0 -3.64,-0.64 8.26,8.26 0 0 1 4,-1.54 8.57,8.57 0 0 1 2.32,0.05 7.15,7.15 0 0 1 2.07,0.66 c 0.42,0.21 0.45,-0.31 0.18,-0.47 z m -14.81,5.9 a 7.77,7.77 0 0 1 2.9,-2.5 7.22,7.22 0 0 0 -0.6,1.86 8.18,8.18 0 0 0 -2.41,0.82 1.74,1.74 0 0 1 0.11,-0.21 z m 3.41,7.59 a 5.68,5.68 0 0 1 -3.66,-2.45 4.22,4.22 0 0 1 -0.65,-2.77 5.86,5.86 0 0 1 3.1,-1.69 5.68,5.68 0 0 0 1.8,4.12 7.22,7.22 0 0 0 2.72,1.49 3.08,3.08 0 0 1 -3.31,1.27 z m 2,-3.47 a 4.6,4.6 0 0 1 -1.74,-3.51 3.5,3.5 0 0 1 2.52,1.36 4.56,4.56 0 0 1 1,3 6,6 0 0 1 -1.82,-0.87 z m 3.33,-7.09 a 5.66,5.66 0 0 1 2.58,1.52 4,4 0 0 1 0.76,1.06 5,5 0 0 1 0.42,3.64 2.94,2.94 0 0 1 -2.62,2 5.29,5.29 0 0 1 -1.26,0 5.39,5.39 0 0 0 -0.2,-2.31 5.15,5.15 0 0 0 -3.58,-3.57 6.4,6.4 0 0 0 -1.07,-0.14 6,6 0 0 1 1.08,-2.43 8,8 0 0 1 3.85,0.2 z"
         style="fill:#407bff"
         id="path191" />
      <path
         d="m 300.33,273 a 7.57,7.57 0 0 0 -4.89,-1.19 9.36,9.36 0 0 0 -5.39,2.37 5.44,5.44 0 0 0 -0.48,0.48 9.2,9.2 0 0 0 -4.94,3.26 7,7 0 0 0 -1.34,2.86 5.44,5.44 0 0 0 -1.2,2.71 6.11,6.11 0 0 0 1.27,4.38 9.33,9.33 0 0 0 6.65,3.62 c 0.51,-0.5 1,-1 1.45,-1.51 a 8.12,8.12 0 0 1 -5.34,-1.55 5.67,5.67 0 0 1 -2.62,-4.76 v 0.1 a 6.89,6.89 0 0 0 4,3.82 5,5 0 0 0 5.2,-0.71 4.23,4.23 0 0 0 1,-1.38 7.4,7.4 0 0 0 0.94,0 4.71,4.71 0 0 0 4.32,-2.25 5.73,5.73 0 0 0 0.13,-4.79 6,6 0 0 0 -2.51,-2.93 7.22,7.22 0 0 0 -1.18,-0.59 9.39,9.39 0 0 0 -3.64,-0.64 8.26,8.26 0 0 1 4,-1.54 8.57,8.57 0 0 1 2.32,0.05 7.15,7.15 0 0 1 2.07,0.66 c 0.42,0.21 0.45,-0.31 0.18,-0.47 z m -14.81,5.9 a 7.77,7.77 0 0 1 2.9,-2.5 7.22,7.22 0 0 0 -0.6,1.86 8.18,8.18 0 0 0 -2.41,0.82 1.74,1.74 0 0 1 0.11,-0.21 z m 3.41,7.59 a 5.68,5.68 0 0 1 -3.66,-2.45 4.22,4.22 0 0 1 -0.65,-2.77 5.86,5.86 0 0 1 3.1,-1.69 5.68,5.68 0 0 0 1.8,4.12 7.22,7.22 0 0 0 2.72,1.49 3.08,3.08 0 0 1 -3.31,1.27 z m 2,-3.47 a 4.6,4.6 0 0 1 -1.74,-3.51 3.5,3.5 0 0 1 2.52,1.36 4.56,4.56 0 0 1 1,3 6,6 0 0 1 -1.82,-0.87 z m 3.33,-7.09 a 5.66,5.66 0 0 1 2.58,1.52 4,4 0 0 1 0.76,1.06 5,5 0 0 1 0.42,3.64 2.94,2.94 0 0 1 -2.62,2 5.29,5.29 0 0 1 -1.26,0 5.39,5.39 0 0 0 -0.2,-2.31 5.15,5.15 0 0 0 -3.58,-3.57 6.4,6.4 0 0 0 -1.07,-0.14 6,6 0 0 1 1.08,-2.43 8,8 0 0 1 3.85,0.2 z"
         style="opacity:0.5;fill:#ffffff"
         id="path193" />
      <path
         d="m 282.12,283.33 a 4.3,4.3 0 0 0 1.64,2.05 4.31,4.31 0 0 1 -0.26,-1.74 v 0.1 a 7.68,7.68 0 0 1 -0.24,-3 5.45,5.45 0 0 0 -1.14,2.59 z"
         style="opacity:0.15"
         id="path195" />
      <path
         d="m 285,280.88 a 6.22,6.22 0 0 1 0.39,-1.83 4.67,4.67 0 0 0 -0.79,2.19 4.64,4.64 0 0 1 0.4,-0.36 z"
         style="opacity:0.15"
         id="path197" />
      <path
         d="m 287.19,277.15 a 7.28,7.28 0 0 1 1.23,-0.78 6.71,6.71 0 0 1 1.15,-1.74 9.22,9.22 0 0 0 -1,0.34 4.93,4.93 0 0 0 -1.38,2.18 z"
         style="opacity:0.15"
         id="path199" />
      <path
         d="m 287.82,278.23 a 5.59,5.59 0 0 0 -0.56,0.12 9,9 0 0 0 -0.23,1.39 c 0.23,-0.07 0.46,-0.14 0.69,-0.19 a 4.38,4.38 0 0 1 0.1,-1.32 z"
         style="opacity:0.15"
         id="path201" />
      <path
         d="m 293.72,285.47 a 14.8,14.8 0 0 1 -1.48,-0.31 2.89,2.89 0 0 1 -0.58,0.67 3.66,3.66 0 0 0 1.44,0.57 4.86,4.86 0 0 0 0.62,-0.93 z"
         style="opacity:0.15"
         id="path203" />
      <path
         d="m 291.78,274.32 a 11.5,11.5 0 0 0 -1.45,1.4 c 0.18,0 0.36,-0.05 0.53,-0.08 a 9.72,9.72 0 0 1 0.92,-1.32 z"
         style="opacity:0.15"
         id="path205" />
      <path
         d="m 289.15,279.48 0.3,0.06 a 4.44,4.44 0 0 1 0,-1.37 h -0.2 a 6.46,6.46 0 0 0 -0.1,1.31 z"
         style="opacity:0.15"
         id="path207" />
      <path
         d="m 294.15,283.61 a 4.56,4.56 0 0 1 -1.52,0 2.44,2.44 0 0 1 0,0.27 6.09,6.09 0 0 0 1.46,0.29 5.07,5.07 0 0 0 0.06,-0.56 z"
         style="opacity:0.15"
         id="path209" />
      <g
         id="freepik--Arm--inject-197">
        <path
           d="m 231.67,268.64 c 0,2.8 -0.94,4.8 -2.47,5.81 a 10.59,10.59 0 0 1 -1.2,0.55 13,13 0 0 1 -17.73,-12.12 12.94,12.94 0 0 1 5.12,-10.33 0.15,0.15 0 0 1 0.1,-0.09 c 0.16,-0.11 0.3,-0.22 0.46,-0.32 v 0 c 1.65,-1 3.94,-0.82 6.48,0.64 5.13,2.89 9.24,10 9.24,15.86 z"
           style="fill:#407bff"
           id="path211" />
        <path
           d="m 231.67,268.64 c 0,2.8 -0.94,4.8 -2.47,5.81 a 10.59,10.59 0 0 1 -1.2,0.55 13,13 0 0 1 -17.73,-12.12 12.94,12.94 0 0 1 5.12,-10.33 0.15,0.15 0 0 1 0.1,-0.09 c 0.16,-0.11 0.3,-0.22 0.46,-0.32 v 0 c 1.65,-1 3.94,-0.82 6.48,0.64 5.13,2.89 9.24,10 9.24,15.86 z"
           style="opacity:0.25"
           id="path213" />
        <path
           d="m 231.67,268.64 c 0,-4.52 -2.45,-9.78 -5.9,-13.3 2.57,3.22 5,11.43 1.86,15.62 -3.14,4.19 -14.72,1.81 -17,-5.07 A 13,13 0 0 0 228,275 a 10.59,10.59 0 0 0 1.19,-0.54 c 1.54,-1.02 2.48,-3.02 2.48,-5.82 z"
           style="opacity:0.1"
           id="path215" />
        <path
           d="m 216.48,348.39 a 13.35,13.35 0 0 0 -0.13,5.79 c 0.16,0.8 1,1.46 1.37,1.07 l 7.9,-8.1 6.34,1.57 1.81,6.29 -8.27,8.49 c -0.31,0.32 -0.27,0.65 0.05,0.74 l 0.59,0.16 a 13.21,13.21 0 0 0 11.38,-23.17 l 10.39,-43.31 a 13.23,13.23 0 0 0 10.35,-15.54 c -0.17,-0.81 -1,-1.47 -1.38,-1.08 l -7.9,8.1 -6.34,-1.57 -1.81,-6.29 8.27,-8.5 c 0.3,-0.3 0.26,-0.65 0,-0.74 l -0.59,-0.16 a 13.21,13.21 0 0 0 -11.38,23.18 l -10.39,43.31 a 13.2,13.2 0 0 0 -10.26,9.76 z"
           style="fill:#407bff"
           id="path217" />
        <path
           d="m 216.48,348.39 a 13.35,13.35 0 0 0 -0.13,5.79 c 0.16,0.8 1,1.46 1.37,1.07 l 7.9,-8.1 6.34,1.57 1.81,6.29 -8.27,8.49 c -0.31,0.32 -0.27,0.65 0.05,0.74 l 0.59,0.16 a 13.21,13.21 0 0 0 11.38,-23.17 l 10.39,-43.31 a 13.23,13.23 0 0 0 10.35,-15.54 c -0.17,-0.81 -1,-1.47 -1.38,-1.08 l -7.9,8.1 -6.34,-1.57 -1.81,-6.29 8.27,-8.5 c 0.3,-0.3 0.26,-0.65 0,-0.74 l -0.59,-0.16 a 13.21,13.21 0 0 0 -11.38,23.18 l -10.39,43.31 a 13.2,13.2 0 0 0 -10.26,9.76 z"
           style="opacity:0.8;fill:#ffffff"
           id="path219" />
        <path
           d="m 243.12,315.63 a 6.45,6.45 0 0 1 -6.45,0.71 7,7 0 0 1 -3.84,-3.31 l -5.44,22.68 a 12.83,12.83 0 0 0 11.22,1 l 4.94,-20.61 c -0.14,-0.16 -0.28,-0.32 -0.43,-0.47 z"
           style="fill:#407bff"
           id="path221" />
        <path
           d="m 243.12,315.63 a 6.45,6.45 0 0 1 -6.45,0.71 7,7 0 0 1 -3.84,-3.31 l -5.44,22.68 a 12.83,12.83 0 0 0 11.22,1 l 4.94,-20.61 c -0.14,-0.16 -0.28,-0.32 -0.43,-0.47 z"
           style="opacity:0.05"
           id="path223" />
        <path
           d="m 223.26,319.09 c -8.44,0.6 -20.64,-3.93 -26.18,-9.25 -2.93,-2.83 -3.57,-6.79 -2,-12.49 3.05,-11 16.24,-26.21 22.5,-29.16 v 0 a 1.93,1.93 0 0 0 0.91,-1.86 6.25,6.25 0 0 0 -2.84,-4.91 2,2 0 0 0 -1.95,-0.22 v 0 c -8.72,4.11 -23.31,21.47 -26.87,34.29 -2.39,8.6 -1,15.47 4.15,20.41 6.65,6.39 20.18,11.29 30.64,11.29 0.75,0 1.5,0 2.22,-0.08 z"
           style="fill:#455a64"
           id="path225" />
        <path
           d="m 210.62,274.25 v 0 a 0.6,0.6 0 0 1 -0.6,-0.61 4.73,4.73 0 0 0 -1.92,-3.46 4.68,4.68 0 0 0 -3.62,-1.25 0.6,0.6 0 0 1 -0.71,-0.47 0.61,0.61 0 0 1 0.47,-0.71 6.59,6.59 0 0 1 7,5.9 0.6,0.6 0 0 1 -0.62,0.6 z"
           style="fill:#37474f"
           id="path227" />
        <path
           d="m 205.64,279.75 a 0.6,0.6 0 0 1 -0.57,-0.4 c -0.82,-2.27 -4.35,-4.32 -6.52,-3.79 a 0.60270225,0.60270225 0 1 1 -0.29,-1.17 c 2.76,-0.68 6.92,1.71 7.94,4.55 a 0.59,0.59 0 0 1 -0.36,0.77 0.51,0.51 0 0 1 -0.2,0.04 z"
           style="fill:#37474f"
           id="path229" />
        <path
           d="m 200.19,287.25 a 0.6,0.6 0 0 1 -0.56,-0.37 6.44,6.44 0 0 0 -6.64,-3.57 0.6,0.6 0 0 1 -0.72,-0.46 0.61,0.61 0 0 1 0.45,-0.72 7.57,7.57 0 0 1 8,4.3 0.6,0.6 0 0 1 -0.34,0.78 0.57,0.57 0 0 1 -0.19,0.04 z"
           style="fill:#37474f"
           id="path231" />
        <path
           d="m 196.24,294.7 a 0.6,0.6 0 0 1 -0.57,-0.4 c -0.26,-0.69 -1.65,-1.42 -3.24,-1.68 -1.59,-0.26 -3.49,-0.12 -4.42,1 a 0.6,0.6 0 0 1 -0.85,0.09 0.61,0.61 0 0 1 -0.08,-0.85 c 1.06,-1.31 3.13,-1.85 5.55,-1.45 1.6,0.26 3.66,1.07 4.17,2.46 a 0.59,0.59 0 0 1 -0.35,0.77 0.52,0.52 0 0 1 -0.21,0.06 z"
           style="fill:#37474f"
           id="path233" />
        <path
           d="m 185.73,304.67 a 0.69,0.69 0 0 1 -0.2,0 0.61,0.61 0 0 1 -0.37,-0.77 c 0.77,-2.18 3.5,-3.26 5.87,-3.35 1.91,-0.08 3.33,0.48 3.78,1.5 a 0.6,0.6 0 0 1 -0.3,0.8 0.62,0.62 0 0 1 -0.8,-0.31 c -0.23,-0.52 -1.3,-0.84 -2.63,-0.79 -2,0.08 -4.23,1 -4.78,2.55 a 0.6,0.6 0 0 1 -0.57,0.37 z"
           style="fill:#37474f"
           id="path235" />
        <path
           d="m 188.91,314.1 v 0 a 0.6,0.6 0 0 1 -0.55,-0.65 c 0.24,-2.65 2.89,-4.31 5.08,-4.93 0.65,-0.18 2.83,-0.69 3.62,0.37 a 0.61611687,0.61611687 0 0 1 -1,0.72 c -0.11,-0.15 -0.95,-0.32 -2.38,0.09 -1.8,0.52 -4,1.84 -4.15,3.86 a 0.6,0.6 0 0 1 -0.62,0.54 z"
           style="fill:#37474f"
           id="path237" />
        <path
           d="m 197.37,321.09 a 0.61,0.61 0 0 1 -0.54,-0.33 4.8,4.8 0 0 1 0.91,-5.42 c 1.48,-1.71 3.66,-2.58 5.2,-2.07 a 0.61,0.61 0 0 1 -0.39,1.15 c -1.05,-0.36 -2.77,0.39 -3.9,1.71 a 3.7,3.7 0 0 0 -0.75,4.08 0.6,0.6 0 0 1 -0.26,0.81 0.54,0.54 0 0 1 -0.27,0.07 z"
           style="fill:#37474f"
           id="path239" />
        <path
           d="m 205.51,324.75 a 0.61,0.61 0 0 1 -0.55,-0.37 6.63,6.63 0 0 1 0.77,-5.88 4.58,4.58 0 0 1 3.28,-2.43 0.6,0.6 0 0 1 0.63,0.57 0.59,0.59 0 0 1 -0.57,0.63 3.63,3.63 0 0 0 -2.32,1.87 5.41,5.41 0 0 0 -0.68,4.77 0.6,0.6 0 0 1 -0.32,0.79 0.69,0.69 0 0 1 -0.24,0.05 z"
           style="fill:#37474f"
           id="path241" />
        <path
           d="m 213.75,327 a 0.61,0.61 0 0 1 -0.54,-0.34 7.32,7.32 0 0 1 0.08,-5.75 4.86,4.86 0 0 1 2.6,-2.86 0.6,0.6 0 1 1 0.4,1.13 3.8,3.8 0 0 0 -1.89,2.19 6.18,6.18 0 0 0 -0.1,4.77 0.6,0.6 0 0 1 -0.29,0.8 0.58,0.58 0 0 1 -0.26,0.06 z"
           style="fill:#37474f"
           id="path243" />
        <path
           d="M 188.16,297.57 C 191,284.79 201.59,274 207.1,268.83 c 3.54,-3.3 7.53,-5.41 10.24,-5.82 a 5.42,5.42 0 0 0 -1.68,-1.6 2,2 0 0 0 -1.95,-0.22 v 0 c -8.72,4.11 -23.31,21.47 -26.87,34.29 -2.39,8.6 -1,15.47 4.15,20.41 0.01,-0.01 -5.66,-5.53 -2.83,-18.32 z"
           style="opacity:0.15"
           id="path245" />
        <path
           d="m 223.26,319.09 c -8.44,0.6 -20.64,-3.93 -26.18,-9.25 a 9,9 0 0 1 -2.66,-5 h -0.16 c 0.65,4.08 1.17,8.9 12.84,13.57 a 38,38 0 0 0 16.31,2.7 z"
           style="opacity:0.15"
           id="path247" />
        <path
           d="m 228.6,312.15 c -0.35,-3.61 0.13,-7.73 1.69,-10.25 1.56,-2.52 4.09,-4.25 5.28,-2.18 0.8,1.38 -0.89,3.49 -1.68,6.08 a 11.69,11.69 0 0 0 -0.17,4.78 z"
           style="fill:#455a64"
           id="path249" />
        <path
           d="m 233.89,305.8 c 0.79,-2.59 2.48,-4.7 1.68,-6.08 a 1.7,1.7 0 0 0 -1,-0.84 v 0 c 0.68,0.93 -0.92,2.67 -2.05,4.9 a 14.09,14.09 0 0 0 -1,7.47 l 2.2,-0.67 a 11.69,11.69 0 0 1 0.17,-4.78 z"
           style="opacity:0.15"
           id="path251" />
        <path
           d="m 247.6,325.38 a 12.85,12.85 0 1 1 -14,-15.6 c 0.13,1.67 2,3.68 4.11,4.44 a 6.45,6.45 0 0 0 6.45,-0.72 12.84,12.84 0 0 1 3.44,11.88 z"
           style="fill:#407bff"
           id="path253" />
        <path
           d="m 247.6,325.38 a 12.85,12.85 0 1 1 -14,-15.6 c 0.13,1.67 2,3.68 4.11,4.44 a 6.45,6.45 0 0 0 6.45,-0.72 12.84,12.84 0 0 1 3.44,11.88 z"
           style="fill:#407bff"
           id="path255" />
        <path
           d="m 247.6,325.38 a 11.38,11.38 0 0 0 0.22,-1.3 c -1.77,3.57 -6.06,8.54 -14.57,7.08 -8.74,-1.5 -10.55,-12 -9.41,-14.83 a 12.44,12.44 0 0 0 -1.31,3.43 12.85,12.85 0 1 0 25.07,5.62 z"
           style="opacity:0.1"
           id="path257" />
        <path
           d="m 247.67,320 c 4.38,-1.77 5.82,-5.78 5.14,-9.84 -0.68,-4.06 -6.49,-5.65 -6.49,-5.65 l -1.12,4.68 c 0,0 2.86,1.07 2.72,3.07 a 4.22,4.22 0 0 1 -2.23,3 3.51,3.51 0 0 0 1.98,4.74 z"
           style="fill:#455a64"
           id="path259" />
        <path
           d="m 246.32,304.55 -1.12,4.68 c 0,0 2.86,1.07 2.72,3.07 a 4.22,4.22 0 0 1 -2.23,3 3.5,3.5 0 0 0 0.88,4 v 0 c -0.46,-1.57 0.54,-2.33 2.1,-4 1.56,-1.67 0.94,-4.49 -0.06,-6.26 a 5.09,5.09 0 0 1 -0.3,-3.77 12.45,12.45 0 0 0 -1.99,-0.72 z"
           style="opacity:0.15"
           id="path261" />
        <path
           d="m 247.09,327.09 c 3.41,1 7.53,-0.39 8.08,-3.17 0.55,-2.78 -0.37,-5.08 -3.59,-7 a 8.45,8.45 0 0 1 -3.91,3.08 l 0.21,1.5 a 4.83,4.83 0 0 0 -0.79,5.59 z"
           style="fill:#455a64"
           id="path263" />
        <path
           d="m 251.58,317 a 8.45,8.45 0 0 1 -3.91,3.08 l 0.21,1.5 h 4.17 c 0,0 -1.08,-0.35 -0.77,-1.06 0.31,-0.71 2.06,-0.44 2.91,0.66 a 3.76,3.76 0 0 1 0.22,4.31 3.35,3.35 0 0 0 0.76,-1.53 c 0.56,-2.82 -0.37,-5.12 -3.59,-6.96 z"
           style="opacity:0.15"
           id="path265" />
        <path
           d="m 242.46,333.08 a 14,14 0 0 0 4.57,2.7 c 1.31,0.49 3.6,0.52 4.83,-0.79 1.23,-1.31 0.38,-2.76 -0.54,-3.41 a 30.56,30.56 0 0 0 -5,-2.8 c 0,0 -3.56,0 -3.86,4.3 z"
           style="fill:#455a64"
           id="path267" />
        <path
           d="m 251.32,331.58 a 30.56,30.56 0 0 0 -5,-2.8 4,4 0 0 0 -2.94,1.54 c 0.75,-0.75 3.26,0.64 5.31,1.88 2.05,1.24 3.66,1.94 2.82,3.08 a 3.17,3.17 0 0 0 0.35,-0.29 c 1.31,-1.42 0.38,-2.76 -0.54,-3.41 z"
           style="opacity:0.15"
           id="path269" />
      </g>
      <path
         d="m 345.49,230 a 2.78,2.78 0 0 0 1.48,-3.45 c -0.83,-2.41 -3.74,-3.12 -3.74,-3.12 0,0 -5.39,-1.49 -9.5,1 -4.11,2.49 -4.17,7.7 -4.05,9.37 a 2.35,2.35 0 0 0 4.55,0.5 c 0.95,-2.05 0.94,-4.89 4.37,-5.89 2.83,-0.84 5.21,2.33 6.89,1.59 z"
         style="fill:#455a64"
         id="path272" />
      <path
         d="m 343.84,227.82 c -2.86,-1.17 -5.92,-2.7 -8.35,0 -2.43,2.7 -1.93,5.34 -2.94,6.45 -1.01,1.11 -2.22,0.92 -2.76,0 a 2.35,2.35 0 0 0 4.44,0 c 0.95,-2.05 0.94,-4.89 4.37,-5.89 2.83,-0.82 5.21,2.35 6.89,1.61 a 2.78,2.78 0 0 0 1.48,-3.45 c 0.03,1.22 -0.89,2.19 -3.13,1.28 z"
         style="opacity:0.15"
         id="path274" />
      <path
         d="m 351.06,241.68 a 2.11,2.11 0 0 1 2.59,-0.22 2.77,2.77 0 0 1 1.66,2.31 c 0,0 0.15,3.54 -3.69,7.17 a 11.21,11.21 0 0 1 -9,2.79 c -2.52,-0.68 -2.95,-3.52 0,-4.16 2.21,-0.48 4.16,-0.43 6.53,-3.09 1.45,-1.64 1.45,-3.81 1.91,-4.8 z"
         style="fill:#455a64"
         id="path276" />
      <path
         d="m 350.11,249.76 c -3.89,3 -6.28,2.65 -7.73,2.29 -1.45,-0.36 -1.43,-1.76 -0.82,-2.07 -1.7,1 -1.09,3.17 1.07,3.75 a 11.21,11.21 0 0 0 9,-2.79 c 3.84,-3.63 3.69,-7.17 3.69,-7.17 a 2.77,2.77 0 0 0 -1.66,-2.31 c 0.72,0.95 0.62,5.15 -3.55,8.3 z"
         style="opacity:0.15"
         id="path278" />
      <path
         d="m 347.28,231.6 a 4,4 0 0 1 3.64,2 c 1.92,2.91 -0.34,4.13 -0.34,4.13 -1.49,0.18 -3.37,-0.76 -6.42,0.45 -3.79,1.5 -4.21,4.38 -5.1,6.65 -1,2.52 -4.85,1.15 -4.22,-2.78 0.63,-3.93 2.25,-6.47 4.82,-8.13 a 14.52,14.52 0 0 1 7.62,-2.32 z"
         style="fill:#455a64"
         id="path280" />
      <path
         d="m 348.53,235.44 c -2.67,-0.14 -6.64,0.27 -8.44,3.14 -1.21,1.94 -1.51,4.65 -2.57,5.45 a 1.68,1.68 0 0 1 -2.74,-1.05 c 0.06,3.21 3.38,4.17 4.28,1.86 0.9,-2.31 1.31,-5.15 5.1,-6.65 3,-1.21 4.93,-0.27 6.42,-0.45 0,0 2.06,-1.12 0.56,-3.77 0.42,1.03 0.05,1.62 -2.61,1.47 z"
         style="opacity:0.15"
         id="path282" />
      <path
         d="m 280.45,322.5 v 0 a 6.0047065,6.0047065 0 1 0 -9.08,7.86 v 0 l 38.34,44.37 9.1,-7.86 z"
         style="fill:#455a64"
         id="path284" />
      <path
         d="m 277.26,337.77 a 0.63,0.63 0 0 1 -0.46,-0.2 6.61,6.61 0 1 1 10,-8.64 0.6,0.6 0 1 1 -0.91,0.78 5.41,5.41 0 1 0 -8.18,7.07 0.6,0.6 0 0 1 -0.06,0.85 0.57,0.57 0 0 1 -0.39,0.14 z"
         style="fill:#37474f"
         id="path286" />
      <path
         d="m 283.77,345.31 a 0.6,0.6 0 0 1 -0.46,-0.21 6.61,6.61 0 1 1 10,-8.64 0.60253631,0.60253631 0 1 1 -0.91,0.79 5.4026845,5.4026845 0 1 0 -8.18,7.06 0.6,0.6 0 0 1 -0.06,0.85 0.58,0.58 0 0 1 -0.39,0.15 z"
         style="fill:#37474f"
         id="path288" />
      <path
         d="m 290.28,352.84 a 0.63,0.63 0 0 1 -0.46,-0.2 6.61,6.61 0 1 1 10,-8.64 0.6,0.6 0 0 1 -0.91,0.78 5.41,5.41 0 1 0 -8.18,7.07 0.6,0.6 0 0 1 -0.06,0.85 0.57,0.57 0 0 1 -0.39,0.14 z"
         style="fill:#37474f"
         id="path290" />
      <path
         d="m 296.79,360.38 a 0.6,0.6 0 0 1 -0.46,-0.21 6.61,6.61 0 1 1 10,-8.64 0.60253631,0.60253631 0 1 1 -0.91,0.79 5.4026845,5.4026845 0 1 0 -8.18,7.06 0.6,0.6 0 0 1 -0.06,0.85 0.58,0.58 0 0 1 -0.39,0.15 z"
         style="fill:#37474f"
         id="path292" />
      <path
         d="m 303.3,367.91 a 0.6,0.6 0 0 1 -0.46,-0.21 6.61,6.61 0 1 1 10,-8.64 0.60253631,0.60253631 0 1 1 -0.91,0.79 5.41,5.41 0 1 0 -8.18,7.07 0.6,0.6 0 0 1 -0.06,0.85 0.62,0.62 0 0 1 -0.39,0.14 z"
         style="fill:#37474f"
         id="path294" />
      <path
         d="m 275.9,320.42 a 6,6 0 0 0 -4.54,9.94 v 0 l 38.34,44.37 3.78,-3.27 c -11.71,-13.11 -30.71,-34.39 -35.83,-40.22 -7.56,-8.6 -4.48,-10.17 -1.75,-10.82 z"
         style="opacity:0.15"
         id="path296" />
      <path
         d="m 380.27,372.91 c 0,0 -11.22,-9.79 -20.21,-3.39 a 67.54,67.54 0 0 0 -14.4,14 l -24.22,-21.41 v 0 c -1.49,-1.29 -4.09,-1.32 -6.66,0.16 -4.5,2.6 -8.14,8.91 -8.14,14.1 a 7,7 0 0 0 1.12,4.1 v 0 c 0,0 26.63,37.23 31.16,43 4.53,5.77 10.28,8.8 18,5.28 7.72,-3.52 10,-13.6 10.93,-20.41 0.93,-6.81 9.65,-16.36 12,-22.47 2.45,-6.68 1.86,-10.71 0.42,-12.96 z"
         style="fill:#407bff"
         id="path298" />
      <path
         d="m 371.52,370.22 c -4.29,0.36 -14.58,5.68 -17.59,17 a 93.07,93.07 0 0 1 -4.2,12.72 29.43,29.43 0 0 1 -5.66,8.42 c -3.55,3.77 -7.8,1.2 -11.48,-1.85 -3.68,-3.05 -14.08,-16.72 -17.59,-22.61 -2.57,-4.26 -3.38,-7.49 -2.68,-10.59 0.24,0.32 0.49,0.63 0.74,0.91 3.46,3.84 10.07,7 15.11,3.15 2.46,-1.87 2.66,-4.82 1.85,-7.74 l -8.54,-7.55 c -1.49,-1.29 -4.09,-1.32 -6.66,0.16 -0.27,0.16 -0.53,0.33 -0.79,0.5 l -0.27,0.2 -0.49,0.37 -0.32,0.27 -0.42,0.37 -0.34,0.32 -0.36,0.36 -0.35,0.37 -0.32,0.37 c -0.12,0.13 -0.24,0.27 -0.35,0.41 l -0.28,0.36 c -0.12,0.15 -0.24,0.31 -0.35,0.47 -0.11,0.16 -0.15,0.21 -0.22,0.31 a 17.34,17.34 0 0 0 -3.28,9.42 7,7 0 0 0 1.12,4.1 v 0 c 0,0 26.63,37.23 31.16,43 4.53,5.77 10.28,8.8 18,5.28 7.72,-3.52 10,-13.6 10.93,-20.41 0.68,-5 5.62,-11.55 9.09,-17.08 z"
         style="opacity:0.15"
         id="path300" />
      <path
         d="m 379.77,385.84 c 2.53,-6.65 1.94,-10.68 0.5,-12.93 a 27.13,27.13 0 0 0 -4.74,-3.15 c -6.19,-0.79 -13.79,6.47 -16.6,11.12 -2.81,4.65 -4.32,10.27 -6.35,17.77 -1.8,6.65 -6.31,10.36 -8.87,16.61 -1.86,4.54 -2.28,8 -1,12 3.86,3 8.49,4 14.19,1.43 7.67,-3.51 10,-13.6 10.93,-20.41 0.93,-6.81 9.62,-16.28 11.94,-22.44 z"
         style="fill:#455a64"
         id="path302" />
      <path
         d="m 360.72,383.49 c -4,7.13 -4.8,17 -8.18,22.77 -3.38,5.77 -8.5,12.16 -7.91,17.7 0.38,3.62 1.65,5.52 4,6.09 a 12.23,12.23 0 0 0 3.87,0 l 0.52,-0.1 a 16.73,16.73 0 0 0 3.83,-1.25 c 7.67,-3.51 10,-13.6 10.93,-20.41 0.93,-6.81 9.65,-16.36 12,-22.47 2.53,-6.65 1.94,-10.68 0.5,-12.93 -4.9,-3.14 -14.28,1.2 -19.56,10.6 z"
         style="fill:#37474f"
         id="path304" />
      <path
         d="m 344.07,382.09 c -5.35,5.13 -6.79,13 -6.79,13 a 118.86,118.86 0 0 1 8.38,-11.59 z"
         style="opacity:0.15"
         id="path306" />
      <path
         d="m 354.54,401.67 c -0.15,0.43 -0.3,0.84 -0.45,1.25 l 16.73,-2.13 c 0.24,-0.42 0.49,-0.85 0.75,-1.28 z"
         style="fill:#263238"
         id="path308" />
      <path
         d="m 351.67,407.7 q -0.39,0.65 -0.81,1.29 l 17.27,-2.19 c 0.11,-0.41 0.24,-0.82 0.39,-1.24 z"
         style="fill:#263238"
         id="path310" />
      <path
         d="M 345.21,426.7 362,424.56 c 0.34,-0.42 0.65,-0.86 1,-1.31 l -18.09,2.3 a 11.23,11.23 0 0 0 0.3,1.15 z"
         style="fill:#263238"
         id="path312" />
      <path
         d="m 345.09,419.86 q -0.18,0.61 -0.3,1.23 l 20.6,-2.62 c 0.16,-0.41 0.3,-0.83 0.44,-1.25 z"
         style="fill:#263238"
         id="path314" />
      <path
         d="m 347.86,413.85 c -0.25,0.42 -0.49,0.85 -0.72,1.28 l 19.93,-2.54 c 0.09,-0.41 0.17,-0.81 0.24,-1.22 z"
         style="fill:#263238"
         id="path316" />
      <path
         d="m 365.08,377.69 c -0.42,0.42 -0.83,0.87 -1.24,1.34 l 17.62,-2.24 a 10.36,10.36 0 0 0 -0.15,-1.17 z"
         style="fill:#263238"
         id="path318" />
      <path
         d="m 360.49,383.93 c -0.23,0.42 -0.44,0.84 -0.65,1.27 l 21,-2.67 c 0.11,-0.42 0.21,-0.83 0.29,-1.22 z"
         style="fill:#263238"
         id="path320" />
      <path
         d="m 358,389.91 c -0.13,0.41 -0.27,0.82 -0.39,1.24 l 20.9,-2.66 c 0.24,-0.44 0.46,-0.86 0.66,-1.27 z"
         style="fill:#263238"
         id="path322" />
      <path
         d="m 356.28,395.79 c -0.12,0.41 -0.23,0.83 -0.34,1.23 l 18.74,-2.38 0.85,-1.3 z"
         style="fill:#263238"
         id="path324" />
      <path
         d="m 313.08,357 c -5.55,3.83 -2.81,11.88 0.65,15.73 3.46,3.85 10.07,7 15.11,3.14 4.63,-3.52 1.28,-10.89 -1.84,-14.65 -3.26,-3.98 -9.54,-7.28 -13.92,-4.22 z"
         style="fill:#407bff"
         id="path326" />
      <path
         d="m 313.08,357 c -5.55,3.83 -2.81,11.88 0.65,15.73 3.46,3.85 10.07,7 15.11,3.14 4.63,-3.52 1.28,-10.89 -1.84,-14.65 -3.26,-3.98 -9.54,-7.28 -13.92,-4.22 z"
         style="opacity:0.7;fill:#ffffff"
         id="path328" />
      <path
         d="m 331.11,371 c -0.39,2.73 -4.57,6.27 -11.62,0.82 -7.05,-5.45 -7.21,-13.61 -4.89,-15.61 a 7,7 0 0 0 -1.52,0.77 c -5.55,3.83 -2.81,11.88 0.65,15.73 3.46,3.85 10.06,7 15.11,3.14 a 5.8,5.8 0 0 0 2.27,-4.85 z"
         style="fill:#407bff"
         id="path330" />
      <path
         d="m 331.11,371 c -0.39,2.73 -4.57,6.27 -11.62,0.82 -7.05,-5.45 -7.21,-13.61 -4.89,-15.61 a 7,7 0 0 0 -1.52,0.77 c -5.55,3.83 -2.81,11.88 0.65,15.73 3.46,3.85 10.06,7 15.11,3.14 a 5.8,5.8 0 0 0 2.27,-4.85 z"
         style="opacity:0.05"
         id="path332" />
      <path
         d="m 258.89,228.39 v -24.52 h -15 v 24.52 0 a 3.71,3.71 0 0 0 2.19,3.06 11.71,11.71 0 0 0 10.6,0 3.71,3.71 0 0 0 2.21,-3.06 z"
         style="fill:#455a64"
         id="path334" />
      <path
         d="m 251.4,228.52 a 11.38,11.38 0 0 1 -5.55,-1.32 4.22,4.22 0 0 1 -2.45,-3.51 0.51,0.51 0 0 1 0.51,-0.51 0.51,0.51 0 0 1 0.51,0.51 3.25,3.25 0 0 0 1.94,2.62 11.12,11.12 0 0 0 10.08,0 3.25,3.25 0 0 0 1.94,-2.62 0.52,0.52 0 0 1 1,0 4.22,4.22 0 0 1 -2.38,3.51 11.45,11.45 0 0 1 -5.6,1.32 z"
         style="fill:#37474f"
         id="path336" />
      <path
         d="m 251.4,223.82 a 11.38,11.38 0 0 1 -5.55,-1.32 4.22,4.22 0 0 1 -2.45,-3.5 0.51,0.51 0 0 1 0.51,-0.52 0.51,0.51 0 0 1 0.51,0.52 3.25,3.25 0 0 0 1.94,2.61 11.12,11.12 0 0 0 10.08,0 3.25,3.25 0 0 0 1.94,-2.62 0.52,0.52 0 0 1 1,0 4.22,4.22 0 0 1 -2.38,3.51 11.45,11.45 0 0 1 -5.6,1.32 z"
         style="fill:#37474f"
         id="path338" />
      <path
         d="m 251.4,219.12 a 11.38,11.38 0 0 1 -5.55,-1.32 4.22,4.22 0 0 1 -2.45,-3.5 0.51,0.51 0 0 1 0.51,-0.52 0.51,0.51 0 0 1 0.51,0.52 3.25,3.25 0 0 0 1.94,2.61 11.12,11.12 0 0 0 10.08,0 3.25,3.25 0 0 0 1.94,-2.62 0.52,0.52 0 0 1 1,0 4.22,4.22 0 0 1 -2.38,3.51 11.45,11.45 0 0 1 -5.6,1.32 z"
         style="fill:#37474f"
         id="path340" />
      <path
         d="m 247.14,203.87 h -3.23 v 24.52 a 3.71,3.71 0 0 0 2.19,3.06 7.09,7.09 0 0 0 1,0.49 v -16.05 a 45.11,45.11 0 0 0 11.79,1.11 v -13.13 z"
         style="opacity:0.15"
         id="path342" />
      <path
         d="m 220.37,168.12 c 0,-18.57 15,-30.57 33.62,-30.57 18.62,0 33.61,12 33.61,30.57 v 20.32 c 0,0 -6.69,10.56 -33.6,10.56 -26.91,0 -33.62,-10 -33.62,-10 z"
         style="fill:#407bff"
         id="path344" />
      <path
         d="m 259.33,144.05 a 3.46,3.46 0 0 0 -1.88,1.9 2.63,2.63 0 0 0 0.78,2.44 7.25,7.25 0 0 0 2.28,1.38 77.24,77.24 0 0 0 13.72,4.57 c 1.18,0.27 3.49,1.09 4.36,0 1,-1.32 0.4,-4 -0.95,-5.72 a 13.64,13.64 0 0 0 -8,-5.42 14,14 0 0 0 -10.31,0.85 z"
         style="opacity:0.2;fill:#ffffff"
         id="path346" />
      <path
         d="m 287.6,175.64 c 0,0 -1.88,10.18 -15.2,15.15 -13.32,4.97 -27.78,3.39 -36.62,1.16 0,0 18.92,9.23 38.45,0.37 17.09,-7.75 13.37,-16.68 13.37,-16.68 z"
         style="opacity:0.2"
         id="path348" />
      <path
         d="M 265.61,139.24 A 40,40 0 0 0 254,137.55 c -18.57,0 -33.62,12 -33.62,30.57 v 20.81 c 0,0 2.75,4.1 11.76,7.06 -1.41,-13.51 -3.22,-30.75 2.16,-41.3 6.14,-12.05 23.23,-17.8 31.31,-15.45 z"
         style="opacity:0.15"
         id="path350" />
      <path
         d="m 253,181.92 v 0 a 5,5 0 0 1 -5,-5 v -2.31 a 5,5 0 0 1 5,-5 v 0 a 5,5 0 0 1 5,5 v 2.31 a 5,5 0 0 1 -5,5 z"
         style="fill:#37474f"
         id="path352" />
      <path
         d="m 278,173.93 v 0 c -2.37,0.88 -3.62,-0.22 -4.07,-1.45 a 13.11,13.11 0 0 1 -0.31,-5 6.48,6.48 0 0 1 3.57,-5.38 v 0 a 2.84,2.84 0 0 1 4.22,1.64 14.47,14.47 0 0 1 0.25,4.49 c -0.12,1.92 -1.31,4.68 -3.66,5.7 z"
         style="fill:#37474f"
         id="path354" />
      <path
         d="m 291.08,174.34 a 5.77,5.77 0 0 0 -3.48,-1.72 v 3 c 0,5 -3.28,9.94 -9.84,13.73 -11.41,6.58 -29,7.44 -42,2.58 v -1 a 13.6,13.6 0 0 0 -6.16,-10.66 c -3.4,-2 -6.15,-0.38 -6.15,3.55 a 13,13 0 0 1 -3.1,-8.15 c -1.15,0 -2.67,0.62 -2.67,5 0,5.45 -0.27,11.57 4.9,18.32 8.35,10.91 30.31,20.53 49.21,13 20.15,-8 20.26,-23.13 20.26,-29.27 0.02,-4.57 0.38,-6.83 -0.97,-8.38 z"
         style="fill:#407bff"
         id="path356" />
      <path
         d="m 291.08,174.34 a 5.77,5.77 0 0 0 -3.48,-1.72 v 3 c 0,5 -3.28,9.94 -9.84,13.73 -11.41,6.58 -29,7.44 -42,2.58 v -1 a 13.6,13.6 0 0 0 -6.16,-10.66 c -3.4,-2 -6.15,-0.38 -6.15,3.55 a 13,13 0 0 1 -3.1,-8.15 c -1.15,0 -2.67,0.62 -2.67,5 0,5.45 -0.27,11.57 4.9,18.32 8.35,10.91 30.31,20.53 49.21,13 20.15,-8 20.26,-23.13 20.26,-29.27 0.02,-4.57 0.38,-6.83 -0.97,-8.38 z"
         style="opacity:0.1"
         id="path358" />
      <path
         d="m 260.19,213.09 c -22.25,-0.34 -33,-11.9 -35.78,-17.1 -2.78,-5.2 -2.56,-10.53 -0.94,-9.84 v -2.36 a 13,13 0 0 1 -3.1,-8.15 c -1.15,0 -2.67,0.62 -2.67,5 0,5.45 -0.27,11.57 4.9,18.32 8.35,10.91 30.31,20.53 49.21,13 a 36.14,36.14 0 0 0 12.47,-7.88 c -5.12,3.86 -13.37,9.17 -24.09,9.01 z"
         style="opacity:0.15"
         id="path360" />
      <path
         d="m 230.59,180.89 c 2.11,1.64 3.7,5.12 3.7,11.93 l 1.49,-0.87 v -1 a 13.81,13.81 0 0 0 -5.19,-10.06 z"
         style="opacity:0.2"
         id="path362" />
      <path
         d="m 287.6,175.64 c 0,5 -3.28,9.94 -9.84,13.73 -11.41,6.58 -29,7.44 -42,2.58 l -1.49,0.87 c 0,0 18.2,10 38.74,1.88 19.17,-7.55 18.76,-17.76 18.05,-20.36 a 5.77,5.77 0 0 0 -3.48,-1.72 z"
         style="fill:#407bff"
         id="path364" />
      <path
         d="m 287.6,175.64 c 0,5 -3.28,9.94 -9.84,13.73 -11.41,6.58 -29,7.44 -42,2.58 l -1.49,0.87 c 0,0 18.2,10 38.74,1.88 19.17,-7.55 18.76,-17.76 18.05,-20.36 a 5.77,5.77 0 0 0 -3.48,-1.72 z"
         style="opacity:0.6;fill:#ffffff"
         id="path366" />
      <path
         d="m 228.74,183.62 a 5.62,5.62 0 0 1 2.54,4.4 c 0,1.62 -1.14,2.28 -2.54,1.47 a 5.6,5.6 0 0 1 -2.54,-4.4 c 0,-1.62 1.13,-2.28 2.54,-1.47 z"
         style="fill:#37474f"
         id="path368" />
      <path
         d="m 228.74,183.62 a 2.19,2.19 0 0 0 -1.25,-0.33 2.1,2.1 0 0 0 -0.4,1.34 5.62,5.62 0 0 0 2.54,4.4 2.19,2.19 0 0 0 1.25,0.33 2.1,2.1 0 0 0 0.4,-1.34 5.62,5.62 0 0 0 -2.54,-4.4 z"
         style="fill:#455a64"
         id="path370" />
      <path
         d="m 223.47,183.79 a 13,13 0 0 1 -3.1,-8.15 2.11,2.11 0 0 0 -1.52,0.58 6.53,6.53 0 0 0 0.36,5 10.22,10.22 0 0 0 4.26,4.92 13.31,13.31 0 0 1 0,-2.35 z"
         style="fill:#407bff"
         id="path372" />
      <path
         d="m 223.47,183.79 a 13,13 0 0 1 -3.1,-8.15 2.11,2.11 0 0 0 -1.52,0.58 6.53,6.53 0 0 0 0.36,5 10.22,10.22 0 0 0 4.26,4.92 13.31,13.31 0 0 1 0,-2.35 z"
         style="opacity:0.5;fill:#ffffff"
         id="path374" />
      <path
         d="m 250.17,144.19 v -18 h -4.39 v 18 0 a 1.11,1.11 0 0 0 0.65,0.9 3.45,3.45 0 0 0 3.1,0 1.12,1.12 0 0 0 0.64,-0.9 z"
         style="fill:#455a64"
         id="path376" />
      <path
         d="m 245.78,129.23 a 8.11,8.11 0 0 0 2.16,0.3 8.23,8.23 0 0 0 2.23,-0.32 v -3.07 h -4.39 z"
         style="opacity:0.15"
         id="path378" />
      <circle
         cx="247.94"
         cy="119.42"
         r="8.1400003"
         style="fill:#407bff"
         id="circle380" />
      <path
         d="m 247.94,123.68 c -5.87,-1 -7.89,-6.25 -5.3,-10.44 a 8.14,8.14 0 1 0 13.44,6.18 c -0.35,2.58 -2.93,5.18 -8.14,4.26 z"
         style="opacity:0.15"
         id="path382" />
      <path
         d="m 247.62,116.68 a 12,12 0 0 1 3.59,1.7 c 0.69,0.47 1.79,1.18 2.58,0.47 0.79,-0.71 0.58,-2 0.28,-2.81 a 5.18,5.18 0 0 0 -2.1,-2.45 5.52,5.52 0 0 0 -3.87,-0.71 c -0.84,0.15 -2.22,0.58 -2.45,1.55 -0.23,0.97 1.07,1.99 1.97,2.25 z"
         style="opacity:0.3;fill:#ffffff"
         id="path384" />
      <path
         d="m 248,105.57 a 1,1 0 0 1 -1,-1 v -7 a 1,1 0 0 1 2,0 v 7 a 1,1 0 0 1 -1,1 z"
         style="fill:#e0e0e0"
         id="path386" />
      <path
         d="m 255.39,107.58 a 1,1 0 0 1 -0.5,-0.13 1,1 0 0 1 -0.36,-1.37 L 258,100 a 1,1 0 1 1 1.73,1 l -3.51,6.08 a 1,1 0 0 1 -0.83,0.5 z"
         style="fill:#e0e0e0"
         id="path388" />
      <path
         d="m 260.81,113 a 1,1 0 0 1 -0.5,-1.87 l 6.09,-3.51 a 1,1 0 0 1 1,1.73 l -6.09,3.52 a 1,1 0 0 1 -0.5,0.13 z"
         style="fill:#e0e0e0"
         id="path390" />
      <path
         d="m 269.81,120.46 h -7 a 1,1 0 0 1 0,-2 h 7 a 1,1 0 0 1 0,2 z"
         style="fill:#e0e0e0"
         id="path392" />
      <path
         d="m 266.86,131.39 a 1,1 0 0 1 -0.5,-0.14 l -6.09,-3.51 a 1,1 0 1 1 1,-1.73 l 6.08,3.51 a 1,1 0 0 1 0.37,1.37 1,1 0 0 1 -0.86,0.5 z"
         style="fill:#e0e0e0"
         id="path394" />
      <path
         d="m 229,131.32 a 1,1 0 0 1 -0.5,-1.87 l 6.08,-3.51 a 1.0034441,1.0034441 0 0 1 1,1.74 l -6.08,3.51 a 1,1 0 0 1 -0.5,0.13 z"
         style="fill:#e0e0e0"
         id="path396" />
      <path
         d="m 233.09,120.38 h -7 a 1,1 0 0 1 0,-2 h 7 a 1,1 0 1 1 0,2 z"
         style="fill:#e0e0e0"
         id="path398" />
      <path
         d="m 235.1,113 a 1,1 0 0 1 -0.5,-0.13 l -6.08,-3.51 a 1.0034441,1.0034441 0 1 1 1,-1.74 l 6.08,3.51 a 1,1 0 0 1 0.37,1.37 1,1 0 0 1 -0.87,0.5 z"
         style="fill:#e0e0e0"
         id="path400" />
      <path
         d="m 240.55,107.54 a 1,1 0 0 1 -0.87,-0.5 L 236.17,101 a 1,1 0 1 1 1.73,-1 l 3.52,6.08 a 1,1 0 0 1 -0.87,1.5 z"
         style="fill:#e0e0e0"
         id="path402" />
    </g>
  </g>
  <g
     id="g433"
     transform="translate(-27.330002,-85.423868)">
    <g
       id="g431">
      <g
         id="freepik--speech-bubble--inject-197">
        <path
           d="M 397.11,85.78 321,129.65 a 3.14,3.14 0 0 0 -1.43,2.48 v 45.16 a 3.13,3.13 0 0 0 1.44,2.47 l 5.13,2.87 a 3.22,3.22 0 0 0 2.87,0 l 76.08,-43.87 a 3.18,3.18 0 0 0 1.43,-2.48 V 91.1 a 3.11,3.11 0 0 0 -1.44,-2.46 L 400,85.76 a 3.19,3.19 0 0 0 -2.89,0.02 z"
           style="fill:#407bff"
           id="path406" />
        <path
           d="m 327.61,181.79 v -45.16 a 3.16,3.16 0 0 1 1.43,-2.48 l 76.08,-43.87 c 0.79,-0.46 1.43,-0.09 1.43,0.82 v 45.17 a 3.18,3.18 0 0 1 -1.43,2.48 L 329,182.62 c -0.75,0.45 -1.39,0.08 -1.39,-0.83 z"
           style="fill:#407bff"
           id="path408" />
        <path
           d="m 329,182.62 a 3.12,3.12 0 0 1 -2.87,0 L 321,179.75 a 3.1,3.1 0 0 1 -1.44,-2.46 v -45.16 a 3,3 0 0 1 0.45,-1.46 l 8,4.55 a 2.88,2.88 0 0 0 -0.42,1.41 v 45.16 c 0.02,0.83 0.61,1.32 1.41,0.83 z"
           style="opacity:0.2"
           id="path410" />
        <path
           d="m 406.53,90.84 c -0.11,-0.72 -0.7,-1 -1.41,-0.56 L 329,134.15 a 2.9,2.9 0 0 0 -1,1.07 l -8,-4.55 a 2.83,2.83 0 0 1 1,-1 l 76.08,-43.88 a 3.22,3.22 0 0 1 2.87,0 l 5.13,2.88 a 3.15,3.15 0 0 1 1.45,2.17 z"
           style="opacity:0.4;fill:#ffffff"
           id="path412" />
        <path
           d="m 319.6,151.82 -11.52,11.72 a 1.27,1.27 0 0 0 0.21,2 c 0.24,0.15 8,4.59 8,4.59 l 11.34,-13.66 z"
           style="fill:#407bff"
           id="path414" />
        <path
           d="m 319.6,151.82 -11.52,11.72 a 1.27,1.27 0 0 0 0.21,2 c 0.24,0.15 8,4.59 8,4.59 l 11.34,-13.66 z"
           style="opacity:0.1"
           id="path416" />
        <path
           d="m 327.61,156.43 -11.52,11.72 a 1.27,1.27 0 0 0 1.08,2.15 l 10.44,-1.51 c 1.12,0 1.12,-12.36 0,-12.36 z"
           style="fill:#407bff"
           id="path418" />
      </g>
      <path
         d="m 335.15,148.72 a 20.79,20.79 0 0 1 0.56,-4 18.32,18.32 0 0 1 1.39,-3.82 16,16 0 0 1 2.19,-3.3 11.39,11.39 0 0 1 3,-2.47 6.07,6.07 0 0 1 3,-1 3.33,3.33 0 0 1 2.2,0.77 4.78,4.78 0 0 1 1.39,2.21 11.64,11.64 0 0 1 0.56,3.38 c 0,1 0.05,2 0.05,3.14 0,1.14 0,2.14 -0.05,3.11 a 19.36,19.36 0 0 1 -0.56,4 17.94,17.94 0 0 1 -1.39,3.84 15.5,15.5 0 0 1 -2.2,3.31 11.68,11.68 0 0 1 -3,2.44 6.18,6.18 0 0 1 -3,1 3.17,3.17 0 0 1 -2.19,-0.77 5,5 0 0 1 -1.39,-2.23 12.36,12.36 0 0 1 -0.56,-3.38 c 0,-0.94 0,-2 0,-3.07 0,-1.07 -0.03,-2.14 0,-3.16 z m 10,0.29 c 0,-0.43 0,-0.9 0,-1.43 0,-0.53 0,-1.05 0,-1.59 0,-0.54 0,-1.05 0,-1.55 0,-0.5 0,-0.93 0,-1.32 a 6.1,6.1 0 0 0 -0.24,-1.48 2.3,2.3 0 0 0 -0.54,-1 1.31,1.31 0 0 0 -0.88,-0.35 2.35,2.35 0 0 0 -1.23,0.4 4.65,4.65 0 0 0 -1.23,1 6.16,6.16 0 0 0 -0.88,1.37 7.55,7.55 0 0 0 -0.55,1.6 10,10 0 0 0 -0.24,1.75 q 0,0.63 -0.06,1.38 c 0,0.51 0,1 0,1.57 0,0.57 0,1.07 0,1.58 0,0.51 0,1 0.06,1.37 a 3.88,3.88 0 0 0 0.79,2.46 c 0.46,0.5 1.16,0.48 2.11,-0.06 a 5,5 0 0 0 2.09,-2.37 9.63,9.63 0 0 0 0.81,-3.34 z"
         style="fill:#455a64"
         id="path421" />
      <path
         d="m 363.9,137.07 c 0,0.34 0,0.79 0,1.34 0,0.55 0,1 0,1.36 a 14.82,14.82 0 0 1 -0.5,3.45 16.47,16.47 0 0 1 -1.25,3.31 14,14 0 0 1 -1.93,2.85 9.91,9.91 0 0 1 -2.52,2.08 5.23,5.23 0 0 1 -2.52,0.82 2.83,2.83 0 0 1 -1.92,-0.62 4.23,4.23 0 0 1 -1.26,-1.86 8.88,8.88 0 0 1 -0.5,-2.87 c 0,-0.34 0,-0.78 0,-1.33 0,-0.55 0,-1 0,-1.37 a 14.61,14.61 0 0 1 0.48,-3.43 15.49,15.49 0 0 1 1.27,-3.32 14.42,14.42 0 0 1 1.93,-2.87 9.76,9.76 0 0 1 2.52,-2.1 5.13,5.13 0 0 1 2.52,-0.81 3,3 0 0 1 1.94,0.64 4,4 0 0 1 1.25,1.85 9.06,9.06 0 0 1 0.49,2.88 z m -8.29,7.32 a 2.27,2.27 0 0 0 0.62,1.73 1.28,1.28 0 0 0 1.47,-0.1 3.76,3.76 0 0 0 1.47,-1.6 5.88,5.88 0 0 0 0.63,-2.45 c 0,-0.37 0.05,-0.78 0.05,-1.22 0,-0.44 0,-0.84 -0.05,-1.17 a 2.27,2.27 0 0 0 -0.63,-1.73 c -0.37,-0.29 -0.86,-0.25 -1.47,0.1 a 3.76,3.76 0 0 0 -1.47,1.6 5.87,5.87 0 0 0 -0.62,2.45 11.59,11.59 0 0 0 -0.05,1.22 10.09,10.09 0 0 0 0.05,1.17 z"
         style="fill:#455a64"
         id="path423" />
      <path
         d="m 373.44,142.38 a 3.6,3.6 0 0 1 -1.17,0.46 2,2 0 0 1 -0.86,0 1.54,1.54 0 0 1 -0.62,-0.33 2.38,2.38 0 0 1 -0.41,-0.44 v 7.47 a 1.85,1.85 0 0 1 -0.18,0.78 1.19,1.19 0 0 1 -0.44,0.53 l -2.87,1.66 a 0.34,0.34 0 0 1 -0.43,0 0.78,0.78 0 0 1 -0.18,-0.57 v -23 a 1.85,1.85 0 0 1 0.18,-0.78 1.18,1.18 0 0 1 0.43,-0.53 l 2.76,-1.59 a 0.32,0.32 0 0 1 0.43,0 0.76,0.76 0 0 1 0.19,0.56 v 0.81 c 0.13,-0.31 0.28,-0.65 0.44,-1 a 7.07,7.07 0 0 1 0.59,-1 6.57,6.57 0 0 1 0.87,-1 6.23,6.23 0 0 1 1.27,-0.93 4.35,4.35 0 0 1 1.93,-0.64 2.14,2.14 0 0 1 1.6,0.55 4.28,4.28 0 0 1 1.11,1.87 11.64,11.64 0 0 1 0.46,3.31 c 0,0.35 0,0.81 0,1.41 0,0.6 0,1.08 0,1.44 a 18.21,18.21 0 0 1 -0.46,3.85 15.51,15.51 0 0 1 -1.11,3.15 10.63,10.63 0 0 1 -1.6,2.41 8.14,8.14 0 0 1 -1.93,1.55 z m 1,-9.09 a 12.82,12.82 0 0 0 0,-2 3.5,3.5 0 0 0 -0.52,-1.84 q -0.46,-0.66 -1.53,0 a 3.09,3.09 0 0 0 -0.87,0.74 4.82,4.82 0 0 0 -0.6,1 6.32,6.32 0 0 0 -0.38,1.11 7.58,7.58 0 0 0 -0.18,1.13 c 0,0.36 -0.05,0.78 -0.05,1.25 0,0.47 0,0.87 0.05,1.2 a 4.17,4.17 0 0 0 0.18,0.92 1.81,1.81 0 0 0 0.38,0.67 0.87,0.87 0 0 0 0.6,0.3 1.48,1.48 0 0 0 0.87,-0.25 3.5,3.5 0 0 0 1.53,-1.79 7.89,7.89 0 0 0 0.54,-2.44 z"
         style="fill:#455a64"
         id="path425" />
      <path
         d="m 387.66,128.34 c 0,-0.26 -0.05,-0.43 -0.17,-0.5 a 0.77,0.77 0 0 0 -0.58,0 10.65,10.65 0 0 0 -1.08,0.35 c -0.45,0.16 -1,0.35 -1.68,0.54 a 2.54,2.54 0 0 1 -2.67,-0.42 4.66,4.66 0 0 1 -0.93,-3.32 8.12,8.12 0 0 1 0.39,-2.44 11.49,11.49 0 0 1 1.08,-2.41 10.94,10.94 0 0 1 1.68,-2.18 10.28,10.28 0 0 1 2.18,-1.71 6.34,6.34 0 0 1 2.19,-0.82 3.76,3.76 0 0 1 1.74,0.12 2.27,2.27 0 0 1 1.15,0.92 3,3 0 0 1 0.47,1.5 1.6,1.6 0 0 1 -0.18,0.77 1.15,1.15 0 0 1 -0.44,0.53 l -2.71,1.57 c -0.17,0.1 -0.3,0.12 -0.4,0.06 a 3,3 0 0 0 -0.36,-0.19 1.17,1.17 0 0 0 -0.53,-0.07 2.42,2.42 0 0 0 -0.93,0.35 3.16,3.16 0 0 0 -0.87,0.74 1.47,1.47 0 0 0 -0.36,1 0.86,0.86 0 0 0 0.12,0.53 c 0.07,0.1 0.23,0.12 0.45,0.07 a 9.62,9.62 0 0 0 1,-0.29 l 1.62,-0.55 c 1.38,-0.45 2.39,-0.31 3,0.42 a 4.71,4.71 0 0 1 0.95,3.19 8.28,8.28 0 0 1 -0.39,2.45 10.81,10.81 0 0 1 -1.14,2.48 12.35,12.35 0 0 1 -1.82,2.3 11.87,11.87 0 0 1 -2.44,1.87 6.5,6.5 0 0 1 -2.41,0.91 3.11,3.11 0 0 1 -1.74,-0.2 2.38,2.38 0 0 1 -1.09,-1 3.31,3.31 0 0 1 -0.42,-1.48 1.53,1.53 0 0 1 0.17,-0.76 1.25,1.25 0 0 1 0.45,-0.54 l 2.82,-1.63 c 0.17,-0.1 0.29,-0.1 0.37,0 a 1.11,1.11 0 0 0 0.3,0.25 0.93,0.93 0 0 0 0.52,0.12 2.48,2.48 0 0 0 1,-0.4 4.44,4.44 0 0 0 1.18,-1 1.66,1.66 0 0 0 0.51,-1.13 z"
         style="fill:#455a64"
         id="path427" />
      <path
         d="m 398.17,119.25 a 1.77,1.77 0 0 1 -0.18,0.77 1.08,1.08 0 0 1 -0.43,0.53 l -2.88,1.66 a 0.32,0.32 0 0 1 -0.43,0 0.75,0.75 0 0 1 -0.18,-0.56 v -15.16 a 1.77,1.77 0 0 1 0.18,-0.77 1.13,1.13 0 0 1 0.43,-0.53 l 2.88,-1.66 a 0.32,0.32 0 0 1 0.43,0 0.75,0.75 0 0 1 0.18,0.56 z m 0,7.55 a 1.8,1.8 0 0 1 -0.18,0.77 1.13,1.13 0 0 1 -0.43,0.53 l -2.88,1.66 a 0.32,0.32 0 0 1 -0.43,0 0.75,0.75 0 0 1 -0.18,-0.56 v -3.55 a 1.8,1.8 0 0 1 0.18,-0.77 1.13,1.13 0 0 1 0.43,-0.53 l 2.88,-1.66 a 0.32,0.32 0 0 1 0.43,0 0.75,0.75 0 0 1 0.18,0.56 z"
         style="fill:#455a64"
         id="path429" />
    </g>
  </g>
</svg>
